<?xml version="1.0" encoding="utf-8"?>
<!-- Generator: Adobe Illustrator 23.0.1, SVG Export Plug-In . SVG Version: 6.00 Build 0)  -->
<svg version="1.1" id="Layer_1" xmlns="http://www.w3.org/2000/svg" xmlns:xlink="http://www.w3.org/1999/xlink" x="0px" y="0px"
	 viewBox="0 0 100 100" style="enable-background:new 0 0 100 100;" xml:space="preserve">
<title>BS-Gears-Artboard 5</title>
<path d="M62.2,47.1L61.7,47L61,46.9l-0.8-0.2l-0.9-0.3L58.6,46l-0.4-0.6L58,44.7V44v-1.6v-0.8l0.2-0.7l0.4-0.6l0.7-0.4l0.9-0.3
	l0.8-0.2l0.7-0.1l0.4-0.1l0.3-0.1l0.1-0.2v-0.3l0-0.6l-0.1-0.7l-0.2-0.8l-0.2-0.9l-0.2-0.9l-0.3-0.8l-0.2-0.7l-0.2-0.5l-0.2-0.3
	l-0.2-0.1h-0.3l-0.4,0.2l-0.6,0.2l-0.8,0.3l-0.9,0.2h-0.8l-0.7-0.3l-0.5-0.5l-0.4-0.6L54.8,31l-0.4-0.7L54,29.7L53.8,29l0.1-0.7
	l0.4-0.7l0.6-0.7l0.6-0.5l0.5-0.4l0.3-0.3l0.2-0.2v-0.2l-0.2-0.3L56,24.4l-0.5-0.5L55,23.2l-0.6-0.7l-0.7-0.6l-0.6-0.6l-0.5-0.5
	l-0.4-0.3l-0.3-0.2h-0.2l-0.2,0.2L51,20.9l-0.4,0.5L50.1,22l-0.7,0.6L48.7,23L48,23.1l-0.7-0.2l-0.7-0.3l-0.7-0.4l-0.7-0.4l-0.6-0.4
	L44,20.8l-0.3-0.6v-0.8l0.2-0.9l0.3-0.8l0.2-0.6l0.2-0.4v-0.3l-0.1-0.2L44.1,16l-0.5-0.2L43,15.5l-0.8-0.3L41.3,15l-0.9-0.2
	l-0.8-0.2l-0.7-0.1l-0.5-0.1H38l-0.2,0.1l-0.1,0.3l-0.1,0.4l-0.1,0.7l-0.2,0.8L37,17.5l-0.4,0.7L36,18.7l-0.7,0.2h-0.8H33h-0.8
	l-0.7-0.2l-0.6-0.4l-0.4-0.7l-0.3-0.9L30,15.9l-0.1-0.7l-0.1-0.4l-0.1-0.3l-0.2-0.1h-0.4l-0.5,0.1l-0.7,0.1l-0.8,0.2L26.2,15
	l-0.9,0.2l-0.8,0.3l-0.7,0.2L23.3,16L23,16.1l-0.1,0.2v0.3L23,17l0.2,0.6l0.3,0.8l0.2,0.9v0.8l-0.3,0.6l-0.5,0.5l-0.6,0.4l-0.7,0.4
	l-0.7,0.4l-0.7,0.3l-0.7,0.2L18.8,23l-0.7-0.4L17.4,22l-0.5-0.6l-0.4-0.5l-0.3-0.3L16,20.4h-0.2l-0.3,0.2L15,20.9l-0.6,0.5l-0.6,0.6
	l-0.7,0.6l-0.6,0.7l-0.6,0.6l-0.5,0.5l-0.3,0.4L11,25.1v0.2l0.2,0.2l0.3,0.3l0.5,0.4l0.6,0.5l0.6,0.7l0.4,0.7l0.1,0.7l-0.2,0.7
	l-0.3,0.7L12.7,31l-0.4,0.7l-0.4,0.6l-0.5,0.5l-0.6,0.3H9.9L9,33l-0.8-0.3l-0.6-0.2l-0.4-0.2H6.9l-0.2,0.1l-0.2,0.3l-0.2,0.5L6.1,34
	l-0.3,0.8l-0.2,0.9l-0.2,0.9l-0.2,0.8L5,38.1l0,0.5v0.3l0.1,0.2l0.3,0.1l0.4,0.1l0.7,0.1l0.8,0.2l0.9,0.3l0.7,0.4l0.4,0.6l0.2,0.7
	v0.8V44v0.8l-0.2,0.7L8.9,46l-0.7,0.4l-0.9,0.3l-0.8,0.2L5.8,47l-0.4,0.1l-0.3,0.1L5,47.4v0.3l0.1,0.5L5.2,49l0.2,0.8l0.2,0.9
	l0.2,0.9l0.3,0.8l0.2,0.7l0.2,0.5l0.2,0.3L6.9,54h0.3l0.4-0.2l0.6-0.2L9,53.3l0.9-0.2h0.8l0.6,0.3l0.5,0.5l0.4,0.6l0.4,0.7l0.4,0.7
	l0.3,0.7l0.2,0.7l-0.1,0.7l-0.4,0.7l-0.6,0.7L12,60l-0.5,0.4l-0.3,0.3L11,61v0.2l0.2,0.3l0.3,0.4l0.5,0.5l0.6,0.6l0.6,0.7l0.7,0.6
	l0.6,0.6l0.6,0.5l0.4,0.3l0.3,0.2H16l0.2-0.2l0.3-0.3l0.4-0.5l0.5-0.6l0.7-0.6l0.7-0.4l0.7-0.1l0.7,0.2l0.7,0.3l0.7,0.4l0.7,0.4
	L23,65l0.5,0.5l0.3,0.7V67l-0.2,0.9l-0.3,0.8l-0.2,0.6L23,69.7V70l0.1,0.2l0.3,0.2l0.5,0.2l0.7,0.2l0.8,0.3l0.9,0.2l0.9,0.2l0.8,0.2
	l0.7,0.1l0.5,0.1h0.4l0.2-0.1l0.1-0.3l0.1-0.4l0.1-0.7l0.2-0.8l0.3-0.9L31,68l0.6-0.4l0.7-0.2H33h1.6h0.8l0.7,0.2l0.6,0.4l0.4,0.7
	l0.3,0.9l0.2,0.8l0.1,0.7l0.1,0.4l0.1,0.3l0.2,0.1h0.3l0.5-0.1l0.7-0.1l0.8-0.2l0.9-0.2l0.9-0.2l0.8-0.3l0.7-0.2l0.5-0.2l0.3-0.2
	l0.1-0.2v-0.3l-0.2-0.4l-0.2-0.6L44,67.9L43.7,67v-0.8l0.3-0.7l0.5-0.5l0.6-0.4l0.7-0.4l0.7-0.4l0.7-0.3l0.7-0.2l0.7,0.1l0.7,0.4
	l0.7,0.6l0.5,0.6l0.4,0.5l0.3,0.3l0.2,0.2h0.2l0.3-0.2l0.4-0.3l0.5-0.5l0.6-0.6l0.7-0.6l0.6-0.7l0.6-0.6l0.5-0.5l0.3-0.4l0.2-0.3V61
	l-0.2-0.2L56,60.4L55.5,60l-0.6-0.5l-0.6-0.7l-0.4-0.7l-0.1-0.7l0.2-0.7l0.3-0.7l0.4-0.7l0.4-0.7l0.4-0.6l0.5-0.5l0.7-0.3h0.8
	l0.9,0.2l0.8,0.3l0.6,0.2l0.4,0.2h0.3l0.2-0.1l0.2-0.3l0.2-0.5l0.2-0.7l0.3-0.8l0.2-0.9l0.2-0.9l0.2-0.8l0.1-0.7l0.1-0.5v-0.3
	l-0.1-0.2L62.2,47.1z M33.8,54.8c-6.4,0-11.7-5.2-11.7-11.7s5.2-11.7,11.7-11.7s11.7,5.2,11.7,11.7l0,0
	C45.4,49.6,40.2,54.8,33.8,54.8z M94.4,48.1l-0.6-0.5l-0.6-0.5l-0.5-0.3l-0.3-0.2l-0.2-0.2l-0.1-0.2v-0.3v-0.5v-0.7v-0.8v-0.8v-0.8
	v-0.8v-0.7v-0.5V40l0.1-0.2l0.2-0.2l0.3-0.2l0.5-0.3l0.6-0.5l0.6-0.5l0.4-0.5L95,37v-0.6l-0.2-0.6l-0.3-0.6l-0.3-0.6l-0.3-0.5
	l-0.4-0.4l-0.5-0.2h-0.7l-0.8,0.1l-0.7,0.2L90.1,34l-0.4,0.1h-0.2l-0.2-0.1L89,33.9l-0.4-0.3l-0.5-0.5l-0.6-0.5l-0.6-0.5l-0.6-0.5
	l-0.6-0.4l-0.6-0.4l-0.4-0.3l-0.2-0.2l-0.1-0.2v-0.2v-0.4l0.1-0.6V28v-0.8l-0.2-0.7l-0.3-0.5l-0.5-0.3l-0.6-0.2l-0.7-0.2l-0.7-0.1
	l-0.6-0.1l-0.6,0.1l-0.5,0.3l-0.4,0.5l-0.4,0.7l-0.3,0.7l-0.2,0.6l-0.1,0.4l-0.1,0.2L78,28.8l-0.3,0.1L77.1,29l-0.7,0.1l-0.8,0.1
	l-0.8,0.1l-0.8,0.2l-0.7,0.2L72.8,30l-0.5,0.1l-0.3,0h-0.2L71.5,30l-0.3-0.3l-0.5-0.5l-0.6-0.5l-0.6-0.4L69,28h-0.6l-0.6,0.2
	l-0.6,0.3l-0.5,0.4l-0.5,0.4l-0.4,0.5l-0.3,0.5l-0.1,0.6l0.1,0.7l0.3,0.7l0.4,0.7l0.3,0.5l0.2,0.3l0.1,0.2v0.2l-0.1,0.3L66.4,35
	l-0.3,0.6l-0.4,0.7L65.4,37l-0.3,0.7l-0.3,0.7l-0.3,0.6l-0.2,0.5l-0.2,0.3L64,40l-0.2,0.1h-0.4l-0.6,0.1L62,40.3l-0.7,0.2l-0.6,0.3
	l-0.4,0.4L60,41.8l-0.1,0.6v1.4l0.1,0.6l0.2,0.5l0.4,0.4l0.6,0.3l0.7,0.2l0.8,0.1l0.6,0.1h0.4l0.2,0.1l0.2,0.1l0.2,0.3l0.2,0.5
	l0.3,0.6l0.3,0.7l0.3,0.7l0.4,0.7l0.4,0.7l0.3,0.6l0.2,0.5l0.1,0.3v0.2l-0.1,0.2l-0.2,0.3l-0.3,0.5l-0.4,0.7l-0.3,0.7l-0.1,0.7
	l0.1,0.6l0.3,0.5l0.4,0.5l0.5,0.4l0.5,0.4l0.6,0.3l0.6,0.2H69l0.6-0.3l0.6-0.4l0.6-0.5l0.5-0.5l0.3-0.3l0.2-0.1H72l0.3,0l0.5,0.1
	l0.7,0.2l0.7,0.2l0.8,0.2l0.8,0.2l0.8,0.1l0.7,0.1l0.5,0.1l0.3,0.1l0.2,0.1l0.1,0.2l0.1,0.4l0.2,0.6l0.3,0.7l0.4,0.7l0.4,0.5
	l0.5,0.3l0.6,0.1l0.6-0.1l0.7-0.1l0.7-0.2l0.6-0.2l0.5-0.3l0.3-0.5l0.2-0.7v-0.8v-0.8l-0.1-0.6v-0.4v-0.2l0.1-0.2l0.2-0.2l0.4-0.3
	l0.6-0.4l0.6-0.4l0.6-0.5l0.6-0.5l0.6-0.5l0.5-0.5l0.4-0.3l0.3-0.2l0.2-0.1h0.2l0.4,0.1l0.6,0.2l0.7,0.2l0.8,0.1h0.7l0.5-0.2
	l0.4-0.4l0.3-0.5l0.3-0.6l0.3-0.6l0.2-0.6v-0.6l-0.2-0.6L94.4,48.1z M78.2,51.2c-4.2,0-7.6-3.4-7.6-7.6s3.4-7.6,7.6-7.6
	c4.2,0,7.6,3.4,7.6,7.6l0,0C85.8,47.8,82.4,51.2,78.2,51.2z M85,69.4l-0.2-0.8l-0.2-0.8L84.4,67l-0.3-0.8l-0.3-0.6l-0.3-0.4L83.1,65
	h-0.3l-0.3,0.1l-0.3,0.2l-0.3,0.2l-0.3,0.1l-0.4,0.1l-0.4-0.1l-0.4-0.3l-0.5-0.4l-0.5-0.5l-0.5-0.5l-0.5-0.5l-0.5-0.5l-0.4-0.4
	L77,62.1l-0.1-0.4v-0.4L77,61l0.2-0.3l0.2-0.3l0.1-0.3v-0.3l-0.2-0.3l-0.4-0.3l-0.6-0.3l-0.8-0.3l-0.8-0.2l-0.8-0.2L72.9,58h-0.7
	h-0.5l-0.3,0.2l-0.2,0.3l-0.1,0.3v0.4v0.4v0.4L71,60.3l-0.3,0.3l-0.5,0.2L69.7,61L69,61.1l-0.7,0.2l-0.7,0.2L67,61.8l-0.6,0.2
	L65.8,62l-0.4-0.1l-0.3-0.2l-0.2-0.3l-0.2-0.3l-0.2-0.3l-0.2-0.2l-0.3-0.1h-0.4l-0.5,0.2L62.5,61l-0.6,0.5l-0.6,0.6l-0.6,0.7
	l-0.5,0.6L59.9,64l-0.2,0.5v0.4l0.2,0.3l0.3,0.2l0.3,0.2l0.3,0.2L61,66l0.2,0.3l0.1,0.4v0.5l-0.1,0.6L61,68.5l-0.2,0.7l-0.1,0.7
	l-0.1,0.7l-0.2,0.6l-0.2,0.5l-0.3,0.3l-0.3,0.2l-0.4,0.1h-0.4h-0.4l-0.3,0.1l-0.3,0.2l-0.2,0.3v0.5l0.1,0.7l0.2,0.8l0.2,0.8l0.3,0.8
	l0.3,0.8l0.3,0.6l0.3,0.4l0.3,0.2H60l0.3-0.1l0.3-0.2l0.3-0.2l0.3-0.1l0.4-0.1l0.4,0.1l0.4,0.3l0.5,0.4l0.5,0.5l0.5,0.5l0.5,0.5
	l0.5,0.4l0.4,0.4l0.3,0.4l0.1,0.4v0.4l-0.1,0.3l-0.2,0.3l-0.2,0.3l-0.1,0.3v0.3l0.2,0.3l0.4,0.3l0.6,0.3l0.8,0.3l0.8,0.2l0.8,0.2
	l0.8,0.1h0.7l0.5-0.1l0.3-0.2l0.2-0.3l0.1-0.3v-0.4V84v-0.4l0.1-0.4L72,83l0.5-0.2l0.6-0.2l0.7-0.2l0.7-0.2l0.7-0.2l0.7-0.2l0.6-0.2
	l0.5-0.1l0.4,0.1l0.3,0.2l0.2,0.3l0.2,0.3l0.2,0.3l0.2,0.2l0.3,0.1h0.4l0.5-0.2l0.6-0.4l0.6-0.5l0.6-0.6l0.6-0.7l0.5-0.6l0.4-0.6
	L83,79v-0.4l-0.2-0.3l-0.3-0.2l-0.3-0.2L82,77.7l-0.3-0.2l-0.2-0.3l-0.1-0.4v-0.5l0.1-0.6l0.2-0.7l0.2-0.7l0.1-0.7l0.1-0.7l0.2-0.6
	l0.2-0.5l0.3-0.3l0.3-0.2l0.4-0.1h0.4h0.4l0.3-0.1l0.3-0.2l0.2-0.3v-0.5L85,69.4z M71.3,79c-4,0-7.2-3.2-7.2-7.2
	c0-4,3.2-7.2,7.2-7.2c4,0,7.2,3.2,7.2,7.2l0,0C78.5,75.8,75.3,79,71.3,79z"/>
</svg>
