<svg height='100px' width='100px'  fill="#000000" xmlns="http://www.w3.org/2000/svg" viewBox="0 0 100 100" x="0px" y="0px"><title>BS-Gears-Artboard 4 copy 11</title><g><path d="M50,29.58c-11.94,0-21.65,5.91-21.65,13.16A10,10,0,0,0,32,50.05l.37.32c3.93,3.35,10.36,5.53,17.63,5.53s13.7-2.19,17.63-5.53l.37-.32a10,10,0,0,0,3.65-7.31C71.7,35.49,62,29.58,50,29.58Zm0,25.83c-7.12,0-13.41-2.12-17.25-5.36C36.64,46.82,42.93,44.7,50,44.7s13.41,2.12,17.25,5.36C63.46,53.29,57.16,55.41,50,55.41ZM71.2,42.74a9.5,9.5,0,0,1-3.53,7C63.74,46.38,57.31,44.2,50,44.2s-13.7,2.19-17.63,5.53a9.5,9.5,0,0,1-3.53-7c0-7,9.49-12.66,21.15-12.66S71.2,35.76,71.2,42.74Z"></path><path d="M94.81,46.52l-2.56-.75V33.61l-.07-.17L88.27,29l0,0-5.3-4-.22,0-3.91,1-.06,0L76,27.6,69.6,24.66l-6-1.69v-2.4h0l-.1-2.5-.23-.25-8.43-1.06-8.63-.12-.25.16-1,2.42,0,.1v2.18l-7.3.93-7.3,2-2.1-1.91-.07,0-3.45-1.55h-.22L18,24l0,0-5.42,3.8-.11.21V39.91l-2.92-.2H9.43l-4.2.57L5,40.54V55.11l.21,5,0,.08L7.07,65l.24.17,4.33.06h.05l3.7-.73,3.54,4.19,0,0,.42.3V76.2l.16.24,6.85,3.06,7.75,2.28.23,0,2.72-1.92.07-.08,1.23-2.07,7.88,1.07,8.07,0,.45,2.14.06.12,2,2.25.23.09,8.33-1.15,7.81-2,.2-.25V74.2l3.11-1.43,0,0,5-3.62,3.35,1.22h.06l4.24.54.24-.1L93,66.32l0-.06,2-4.81,0-.1V46.77ZM12.92,28.61l2.26,1.68.07,0,3.13,1.15-3.28,4,0,.07L13.36,40l-.43,0ZM7.05,63.51,5.73,60l-.21-4.92V46.38l1.53,4Zm8.18.51-3.61.71-4-.05v-14l4.06.05h.05l3.54-.7Zm4.23-2.55-.06.16v6.78l-.09-.06-3.55-4.21V50.38l3.17,3.76,0,0,4.86,3.51-2.52,1.45-.07.06ZM34,81.18,26.61,79l-6.68-3V62l6.48,2.9L34,67.15Zm4-3.86-1.25,2.11L34.49,81V67.09l2.61-1.84.07-.08.83-1.4Zm16.3.94-8,0-7.81-1.06v-14l7.76,1.06,8,0Zm2.46,4.16-1.46-1.67-.47-2.26V66.41l0,.06,1.9,2.17Zm16.11-2.69-7.57,2-8,1.1v-14l8.11-1.11,7.48-2Zm8.35-11-5,3.6L73.4,73.62V65.36l0-.09-.94-2.45-.07-.1L70.47,61l6-2.77,0,0,4.67-3.4ZM89,70.35,85,69.85l-3.28-1.2v-14l3.13,1.14h.06l4,.51Zm.15-14.55L85,55.28,81.58,54l-.24,0-5.07,3.68-6.38,2.93-.07.43,2.16,2,.81,2.12-7.48,2-8.18,1.12-1.83-2.09-.48-2.28-.26-.21-8.23,0-8-1.09-.26.13-1.29,2.17-2.57,1.81-7.58-2.22-6.53-2.92,1.55-2,2.83-1.63,0-.44-5.17-3.73L15.7,49.49l-.25-.09-3.82.76L7.5,50.11,5.73,45.45l-.2-4.68,3.94-.54,4,.28.26-.17,1.75-4.59L19,31.52l-.11-.41-3.45-1.26-2.36-1.75,5.1-3.58,6.46-3.07L28,22.93l2.17,2,.25.06,7.38-2,8-1,.22-.31-.47-2.27.89-2.18,8.4.12,8.19,1,.08,2.2-1.28,2.16L62,23l7.44,2.09,6.47,3h.24L79,26.48l3.76-1,5.18,3.86,3.67,4.17-3,1.41-3.82.76-.19.36,1.88,4.6.07,4.71.24.26,4,.28,3.58,1-1.86,4.51Zm-26-34.27v1.29l-.66-.19ZM91.73,34V45.62l-.8-.23h-.06L87,45.11,87,40.59l0-.1-1.78-4.35,3.54-.7.06,0Zm2.75,27.27-2,4.73-3,3.87V56.16L93,51.75l0-.06,1.48-3.59Z"></path></g></svg>