<svg height='100px' width='100px'  fill="#000000" xmlns="http://www.w3.org/2000/svg" viewBox="0 0 100 100" x="0px" y="0px"><defs><style>
      .a {
        fill: none;
      }
    </style></defs><title>BS-Gears-Artboard 4 copy 10</title><polygon class="a" points="48.23 36.58 48.37 36.72 48.77 37.12 49.14 37.44 49.53 37.64 50 37.71 50.46 37.69 50.46 33.66 48.23 35.05 48.23 36.58"></polygon><polygon class="a" points="43.2 35.22 43.74 35.06 44.81 34.74 45.35 34.59 45.61 34.63 46.22 35.02 46.83 35.43 47.41 35.84 47.61 36.01 47.61 35.09 44.56 34.07 44.37 34.1 40.15 35.63 40.45 37.68 40.45 41.19 40.5 41.17 40.89 41 40.89 36.2 41.1 35.9 42.67 35.38 43.2 35.22"></polygon><polygon class="a" points="55.39 32.98 55.71 32.96 55.71 27.69 55.39 28.49 55.39 32.98"></polygon><polygon class="a" points="54.11 35.36 54.16 34.82 54.27 34.28 54.41 33.75 54.57 33.23 54.77 33.08 54.77 28.73 51.55 28.7 51.27 28.74 51.11 28.89 48.98 31.22 50.97 32.86 51.08 33.1 51.08 37.62 51.24 37.6 51.93 37.48 52.64 37.37 53.27 37.24 53.77 37.09 54.05 36.91 54.11 36.79 54.11 35.41 54.11 35.41 54.11 35.41 54.11 35.36"></polygon><polygon class="a" points="42.14 40.4 42.62 40.14 42.94 39.91 43.03 39.76 42.98 39.58 42.76 39.25 41.99 38.36 41.66 37.86 41.51 37.59 41.51 40.7 41.58 40.67 42.14 40.4"></polygon><polygon class="a" points="52.59 22.15 52.59 22.16 52.59 22.16 52.77 24.86 53.11 24.96 55.39 25.57 55.39 21.2 52.6 22.11 52.59 22.15"></polygon><polygon class="a" points="25.54 48.33 25.68 48 25.84 47.66 26.17 46.98 26.45 46.81 26.65 46.81 26.65 38.85 23.2 38.38 23.2 55.01 24.83 55.25 24.89 55.17 24.99 55.15 24.99 49.81 25 49.71 25.26 49.03 25.39 48.68 25.54 48.33"></polygon><polygon class="a" points="36.45 40.29 37.03 40.49 37.74 40.79 38.39 41.07 38.97 41.28 39.5 41.37 39.83 41.34 39.83 38.05 36.45 38.65 36.45 40.29"></polygon><polygon class="a" points="31.73 47.12 32.43 47.18 32.98 47.14 33.38 46.99 33.71 46.75 34.01 46.43 34.32 46.05 34.65 45.67 34.89 45.35 34.99 45.11 34.96 44.97 34.74 44.77 34.27 44.5 33.64 44.2 32.95 43.87 32.31 43.5 31.7 43.11 31.13 42.7 31.05 42.65 31.05 47.04 31.73 47.12"></polygon><polygon class="a" points="31.62 40.94 31.99 40.67 32.36 40.39 33.13 39.85 33.52 39.59 33.77 39.54 34.69 39.77 35.48 39.99 35.82 40.09 35.82 38.51 34.1 36.75 33.93 36.73 33.71 36.72 28.75 36.87 28.62 37.02 27.27 38.68 27.27 46.81 27.37 46.81 28.41 46.82 29.3 46.86 30.09 46.91 30.43 46.96 30.43 42.03 30.55 41.78 31.26 41.22 31.62 40.94"></polygon><path class="a" d="M23.24,35.87V36l0,1.77,3.63.48,1.55-1.87.15-.09.18-.05.41,0,4.63-.09.44,0,.2.07.19.13L36.24,38l3.54-.63-.26-1.84,0-.17,0-.1.15-.16.18-.1,4.37-1.57.25,0h0l.24,0,.88.3,2.19.75,2.37-1.47-1.87-1.59-.05-.12v-.1l.35,0h-.35l0-.17.08-.15.39-.44,2.11-2.24.17-.09.17,0,.31,0,3.3,0,.73-1.83-3.13-.87-.16-.12-.11-.16-.06-.19,0-.76-.14-2h0l0-.23.06-.15.08-.1.13-.1.2-.09,2.79-.9-1-1.81-3.45.17-.28,0-.18-.06-.22-.14-2.65-2.46-.11-.18,0-.11v0h0v-.08l.09-.19.18-.2L49.09,14l-2.56-1.38-3.06,1.2h-.15l-.27,0-1-.3-3.67-1.16-.16-.13h0l-.06-.09L38.09,12v-.12h0l0-1.77L34.5,9.62,33,11.48l-.16.1-.16.05-.36,0-4.7.1-.47,0-.16-.06-.15-.1-1.31-1.35-.39-.4-3.54.62.26,1.84h0l0,.17,0,.1-.12.13-.13.08-.43.18L16.9,14.4h-.13l-.22,0-.71-.24-2.39-.82L11.08,14.8,13,16.41l0,.08,0,.07v.08l0,.17-.1.17-.55.6-2,2.08-.17.08-.2,0H9.76l-3.31,0-.72,1.83,3.12.87.16.11.1.13.06.16,0,.34.15,2.52,0,.23-.07.15-.13.14L9,26.33l-1.25.4-1.64.54,1,1.81,3.44-.17.28,0,.18.06.19.12,2.66,2.46.12.17,0,.13V32l-.09.2-.24.25-1.38,1.33L14.8,35.2l3-1.2L18,34l.27,0,1.11.34,3.55,1.12.17.13.08.13Zm-4.56-12c0-3.88,5.38-7,12-7s12,3.15,12,7-5.38,7-12,7S18.68,27.75,18.68,23.87Z"></path><polygon class="a" points="8.74 25.71 8.56 23.01 8.31 22.93 5.62 22.2 5.62 26.77 8.73 25.76 8.74 25.71"></polygon><polygon class="a" points="49.3 17.05 49.3 14.7 48.05 15.91 49.3 17.05"></polygon><polygon class="a" points="91.57 47.95 90.79 48.23 89.99 48.48 88.49 48.86 87.89 49.05 87.53 49.24 87.41 49.42 87.39 49.65 87.47 49.99 87.61 50.41 87.72 50.81 87.85 51.15 88.04 51.41 88.32 51.59 88.82 51.71 89.54 51.77 91.21 51.83 92.09 51.91 92.66 51.98 92.66 47.5 92.33 47.64 91.57 47.95"></polygon><polygon class="a" points="10.87 15.42 10.87 18.26 12.35 16.65 10.87 15.42"></polygon><polygon class="a" points="10.66 29.56 10.54 29.54 10.47 29.53 7.17 29.7 7.17 46.32 10.48 46.16 10.76 46.19 10.92 46.24 11.11 46.36 11.41 46.63 11.41 33.89 11.5 33.67 13.28 31.95 10.66 29.56"></polygon><polygon class="a" points="5.94 44.27 6.55 45.41 6.55 29.49 5.94 28.34 5.94 44.27"></polygon><polygon class="a" points="25.72 54.96 26.57 54.75 27.43 54.56 28.29 54.41 29.94 54.22 30.6 54.1 31.05 53.95 31.27 53.76 31.38 53.51 31.43 53.17 31.45 52.75 31.48 52.34 31.47 52 31.39 51.76 31.21 51.57 30.78 51.4 30.12 51.26 28.49 51 27.59 50.8 26.76 50.58 25.95 50.34 25.61 50.23 25.61 54.99 25.72 54.96"></polygon><path class="a" d="M42.17,23.87c0-3.6-5.16-6.53-11.5-6.53s-11.5,2.93-11.5,6.53,5.16,6.53,11.5,6.53S42.17,27.47,42.17,23.87Z"></path><polygon class="a" points="12.03 34.41 12.03 50.96 14.47 52.27 14.47 35.73 12.03 34.41"></polygon><polygon class="a" points="18.02 34.61 17.85 34.64 15.09 35.75 15.09 52.33 17.84 51.25 18.01 51.23 18.28 51.26 19.46 51.62 22.58 52.6 22.63 36 22.28 35.88 18.02 34.61"></polygon><polygon class="a" points="30.93 65.15 30.59 64.86 30.25 64.57 29.93 64.27 29.8 64.16 29.8 80.56 30.34 81.06 30.67 81.35 31 81.63 31.33 81.92 31.87 82.35 31.87 65.9 31.28 65.43 30.93 65.15"></polygon><polygon class="a" points="92.65 55.91 91.87 55.98 90.97 56.02 89.28 56.02 88.59 56.05 88.08 56.15 87.76 56.33 87.54 56.59 87.36 56.93 87.2 57.34 87.02 57.73 86.9 58.07 86.89 58.3 86.98 58.47 87.31 58.67 87.89 58.88 88.64 59.1 89.42 59.34 90.17 59.62 90.89 59.93 91.59 60.26 92.3 60.6 92.48 60.88 92.48 72.55 92.71 72.53 93.6 72.43 94.22 72.35 94.22 55.73 93.67 55.8 92.65 55.91"></polygon><polygon class="a" points="82.83 68.81 82.37 69.03 81.91 69.26 80.67 69.82 80.67 86.39 81.17 86.16 81.64 85.94 82.1 85.72 82.55 85.5 83.72 84.9 83.72 68.35 83.28 68.58 82.83 68.81"></polygon><polygon class="a" points="91.41 62.34 91.14 62.65 90.86 62.96 90.38 63.49 90.38 79.82 90.4 79.8 90.67 79.49 90.93 79.18 91.19 78.88 91.43 78.56 91.86 78.02 91.86 61.78 91.67 62.02 91.41 62.34"></polygon><polygon class="a" points="88.14 63.44 87.36 63.31 86.46 63.13 84.97 62.74 84.31 62.61 83.76 62.58 83.3 62.68 82.87 62.88 82.45 63.17 82 63.51 81.55 63.83 81.19 64.13 80.98 64.38 80.96 64.51 81.08 64.7 81.43 65.01 81.93 65.37 82.5 65.78 83 66.23 83.45 66.69 83.87 67.16 84.27 67.64 84.35 67.84 84.35 79.24 84.42 79.24 85.12 79.39 86.65 79.78 87.47 79.95 88.33 80.08 89.21 80.2 89.75 80.27 89.75 63.65 89.01 63.56 88.14 63.44"></polygon><path class="a" d="M92.89,52.64,92,52.53l-.86-.08-1.7-.06-.76-.07-.57-.14-.1,0-.38-.25-.08-.08-.24-.33,0-.07L87.13,51,87,50.58l-.14-.44-.09-.4.3-.07-.31,0,0-.36.05-.15.21-.31.11-.1.46-.24.05,0,.66-.21,1.54-.39.76-.24.75-.28.74-.3.4-.17-.22-.34-.21-.32-.22-.32-.23-.31-.23-.31-.38-.5-.74.06-.89.08-.87.1-.84.13-1.59.34-.74.12h-.7l-.52-.14-.07,0-.5-.28-.43-.33-.4-.35-.43-.36-.36-.34,0,0-.23-.34-.05-.15,0-.33.31,0-.25-.19.25-.33.06-.06.46-.35.55-.35.57-.36.51-.39.48-.42L85,40l.17-.17-.49-.29-.42-.24-.43-.24-.43-.24-.88-.47-.32-.17-.65.23-.75.28-.72.3-.67.31-.61.35-.6.34-.56.27-.05,0-.56.16H76.3l-.62-.13-.62-.2-.62-.23-.67-.23-.58-.23-.45-.25-.08-.07-.26-.3-.08-.2v-.36h.31l-.29-.12.19-.45.26-.45.26-.46.19-.46.14-.49.11-.51,0-.23-.83-.19-.56-.12-.56-.12L71,34.54l-1.56-.3-.4.34-.48.43-.44.43-.38.43-.31.45-.32.47-.32.38-.06.05-.4.27-.1,0-.53.13h-.06l-.63,0h0l-.7,0-.72-.06-.73-.05-.71-.08-.59-.13-.07,0L61,37.13,60.91,37l-.26-.33-.05-.1-.14-.46-.08-.47-.08-.47-.16-.46-.22-.48-.26-.49-.19-.34-1,0-.6,0-.6,0-.6,0-1.57.09-.09.31-.14.5-.1.49,0,.47,0,.48,0,.52,0,.42,0,.12-.17.34-.11.12-.39.24-.07,0-.58.18-.67.13-.71.11-.71.12-.71.1-.63,0h-.06l-.56-.09-.09,0L48.82,38l-.06,0-.44-.37-.82-.84-.49-.4-.55-.4-.59-.39-.49-.31-.94.27-.53.16-.53.16-1,.33-.72.24.09.2.23.49.26.47.3.45.37.44.39.45.27.39,0,.1.08.35,0,.23-.18.31-.08.09-.42.31-.52.28-.57.27-.56.28-.59.26-.56.17h-.06l-.57.05h-.08l-.64-.12-.64-.23-.66-.28-.69-.29L36,40.81l-.78-.23-.82-.22-.7-.18-.65.45-.38.27-.37.27-.36.27-.71.55,0,0,.24.18.56.4.58.38.61.35.66.32.65.31.52.29.06,0,.33.3.09.18.05.33,0,.17-.15.35,0,.07-.29.39-.33.37-.32.4-.33.35,0,0-.39.28-.07,0-.48.18-.09,0-.62,0h0l-.74-.06L30,47.53l-.86-.06-.89,0H26.65l-.24.49-.16.33-.15.33-.14.33-.13.33-.14.36.49.15L27,50l.81.21.81.18,1.64.26.68.15h0l.51.2.11.07.28.29.07.12.11.36v.52l0,.42,0,.45-.06.4,0,.08-.16.35-.08.11-.32.28-.11.06-.58.19-.71.12-1.65.2-.83.15-.83.18-.83.2-.53.14.1.39.09.34.1.33.11.34.12.33.17.48.71,0,.9,0h.88l.87,0,1.68-.14.73,0h0l.61.06.09,0L33,58l.08,0,.36.3,0,0,.3.38.26.39.3.41.23.38,0,.07.1.36v.17l-.09.33-.1.16-.36.29-.06,0-.57.28-.67.27-.69.29-.65.33-.63.36-.62.38L30,63.5l.34.31.32.29.33.29.34.28.69.56.24.19.72-.15.84-.19.81-.2.77-.23.73-.27.71-.26.69-.2.6-.09h.08l.56.07.06,0,.57.2.53.27.52.3L41,65l.48.29,0,0,.35.3.08.11.15.32v.23l-.12.35-.05.09-.34.4-.42.41-.42.42-.36.44-.32.46-.29.48-.1.19.66.26.5.19.5.18.56.2,1,.33.39.13.54-.3.63-.37.59-.37.53-.38.47-.41.47-.41.45-.33.06,0,.49-.22.09,0,.56-.07h.06l.65.05.67.12.69.15.7.14.67.16.53.19.07,0,.36.26.11.14.13.35,0,.12,0,.47-.09.47-.09.47,0,.47,0,.49.08.51.05.29,1,.09.59.06.59.05.59,0,1.19.08.42,0,.24-.34.32-.48.27-.47.21-.46.14-.48.15-.5.18-.41.06-.09L59,69.6l.11-.08.47-.19.07,0,.63-.11.7,0,.73,0,.74,0h.72l.62.05h.06l.51.15.1.05.37.29.06.06.3.42.25.45.26.46.33.44.39.45.44.45.34.34,1-.15.58-.09.58-.09.57-.1,1.14-.21.3-.06v-.25l0-.51-.08-.49-.13-.47-.21-.47-.22-.5-.12-.41.3-.09-.31,0,0-.36.09-.18L71,68l.08-.06.51-.25.61-.21.65-.19.65-.21.66-.18.6-.1h.06l.57,0,.09,0L76,67,76,67l.55.3,1.11.72.63.34.68.32.72.31.61.26.82-.37.47-.22.46-.22.45-.22.89-.46.1-.05-.15-.18L83,67.11l-.43-.44-.47-.41-.53-.39L81,65.49l-.4-.35-.06-.07-.21-.34,0-.23.07-.33.07-.14.27-.33,0,0,.42-.34.45-.33.45-.35.49-.33.48-.23.07,0,.54-.12h.08l.66,0,.7.14.75.2.79.2.82.16.86.14.88.12.73.09.45-.49.27-.31.26-.31.25-.31.25-.31.25-.33-.36-.17-.7-.33-.71-.3-.73-.27-.76-.23-.75-.22-.61-.22-.05,0L86.59,59l-.11-.12-.17-.32.27-.15h-.31l0-.36,0-.09.15-.42.18-.4.18-.43.2-.38,0-.06.28-.32.08-.07.41-.23.1,0,.63-.12.74,0H91l.87,0,.88-.08.89-.1.65-.08.05-.45,0-.34,0-.33v-1.1l-.62-.1ZM70.3,62l-.64.26a29.46,29.46,0,0,1-19.89,0L49.14,62c-4.65-1.94-7.7-5.1-7.7-8.68,0-5.88,8.2-10.67,18.28-10.67S78,47.38,78,53.27C78,56.85,75,60,70.3,62Z"></path><polygon class="a" points="73.08 37.97 72.95 38.3 72.95 38.48 73.1 38.65 73.48 38.87 73.58 38.91 73.58 37.12 73.34 37.54 73.08 37.97"></polygon><polygon class="a" points="84.44 41.36 83.89 41.78 83.3 42.16 82.76 42.5 82.36 42.8 82.21 43 82.22 43.13 82.39 43.37 82.72 43.68 83.14 44.03 83.53 44.38 83.92 44.67 84.32 44.89 84.76 45.01 85.32 45 85.36 44.99 85.36 40.52 84.95 40.91 84.44 41.36"></polygon><polygon class="a" points="55.49 73.66 54.89 73.61 54.3 73.56 52.86 73.42 52.86 90.04 53.76 90.13 54.35 90.19 54.94 90.24 55.54 90.28 56.99 90.38 56.99 73.75 56.09 73.7 55.49 73.66"></polygon><polygon class="a" points="78.76 69.28 78.05 68.94 77.38 68.58 76.8 68.21 76.27 67.86 75.78 67.59 75.31 67.44 74.81 67.42 74.25 67.51 73.64 67.67 73.01 67.88 72.36 68.07 71.79 68.27 71.37 68.47 71.19 68.65 71.17 68.83 71.26 69.16 71.46 69.6 71.69 70.13 71.84 70.67 71.93 71.21 71.98 71.74 72.01 72.29 72.01 84.78 72.17 84.72 72.83 84.53 73.47 84.32 74.13 84.14 74.74 84.05 74.8 84.04 75.37 84.06 75.46 84.08 76 84.25 76.05 84.28 76.6 84.58 77.14 84.93 77.71 85.3 78.34 85.64 79.02 85.96 79.74 86.28 80.05 86.41 80.05 69.83 79.48 69.59 78.76 69.28"></polygon><polygon class="a" points="41.67 70.92 41.15 70.73 40.64 70.55 39.64 70.16 39.56 70.13 39.56 86.71 40.36 87.02 40.86 87.21 41.36 87.4 41.87 87.58 43.01 87.96 43.01 71.37 42.19 71.09 41.67 70.92"></polygon><polygon class="a" points="30.57 62.41 31.22 62.03 31.91 61.69 32.62 61.4 33.28 61.12 33.79 60.87 34.05 60.66 34.09 60.52 34.02 60.29 33.82 59.95 33.53 59.56 33.27 59.18 33.01 58.85 32.71 58.6 32.34 58.44 31.8 58.38 31.1 58.41 29.42 58.55 28.52 58.58 27.49 58.57 26.57 58.55 26.12 58.53 26.12 75.15 26.73 75.18 27.64 75.2 28.52 75.21 29.18 75.19 29.18 63.45 29.32 63.19 29.93 62.8 30.57 62.41"></polygon><polygon class="a" points="51.91 69.28 51.44 69.11 50.82 68.96 50.13 68.82 49.45 68.67 48.81 68.55 48.23 68.51 47.74 68.57 47.33 68.75 46.91 69.06 46.47 69.44 45.97 69.88 45.4 70.29 44.78 70.67 44.14 71.05 43.63 71.33 43.63 87.86 43.83 87.75 44.46 87.39 45.06 87.01 45.59 86.63 46.06 86.22 46.54 85.81 46.99 85.48 47.04 85.45 47.53 85.23 47.63 85.2 48.19 85.14 48.25 85.14 48.9 85.19 49.58 85.31 50.26 85.46 50.96 85.6 51.63 85.76 52.02 85.9 52.02 71.5 52.04 70.94 52.13 70.44 52.22 69.99 52.24 69.66 52.16 69.46 51.91 69.28"></polygon><polygon class="a" points="39.91 68 40.31 67.51 40.75 67.08 41.15 66.68 41.42 66.36 41.48 66.18 41.42 66.03 41.14 65.79 40.69 65.52 40.16 65.23 39.65 64.94 39.15 64.68 38.66 64.51 38.18 64.45 37.64 64.53 37.03 64.71 36.35 64.96 35.55 65.25 34.79 65.47 33.87 65.7 33.01 65.89 32.49 66 32.49 82.61 32.98 82.51 33.82 82.33 34.63 82.12 35.4 81.89 36.13 81.63 36.84 81.36 37.53 81.16 38.13 81.08 38.21 81.08 38.78 81.15 38.84 81.16 38.94 81.2 38.94 69.68 38.98 69.53 39.26 69.02 39.57 68.5 39.91 68"></polygon><polygon class="a" points="25.28 72.68 25.44 73.33 25.5 73.54 25.5 58.26 25.28 57.66 25.28 72.68"></polygon><polygon class="a" points="65.95 72.34 65.53 71.86 65.17 71.36 64.9 70.88 64.67 70.44 64.42 70.11 64.14 69.88 63.71 69.75 63.14 69.71 62.47 69.72 61.74 69.75 61.01 69.78 60.34 69.82 59.79 69.92 59.41 70.07 59.2 70.3 59.05 70.64 58.93 71.08 58.76 71.62 58.52 72.14 58.23 72.65 57.9 73.15 57.61 73.56 57.61 89.7 57.71 89.56 57.98 89.09 58.19 88.63 58.33 88.16 58.48 87.65 58.66 87.24 58.71 87.16 59.01 86.84 59.12 86.77 59.59 86.58 59.65 86.56 60.28 86.45 60.98 86.4 61.72 86.38 62.45 86.34 63.15 86.33 63.18 86.33 63.8 86.39 63.86 86.4 64.37 86.55 64.47 86.6 64.84 86.89 64.9 86.95 65.2 87.38 65.45 87.83 65.7 88.29 66.03 88.73 66.42 89.18 66.78 89.55 66.78 73.19 66.41 72.82 65.95 72.34"></polygon><polygon class="a" points="70.04 72.91 69.47 73.01 68.88 73.1 67.4 73.33 67.4 89.94 68.21 89.83 68.79 89.74 69.36 89.64 69.94 89.55 71.39 89.28 71.39 72.66 70.62 72.81 70.04 72.91"></polygon><path d="M95,53h0v-.35l-.26-.31L94,52.18l-.69-.11V47l0-.17-.42-.66-.22-.33-.22-.33-.23-.32-.24-.32-.49-.64-.27-.12-.77.06-.91.08-1,.12-.87.14L86,44.89h0V39.77l-.15-.27-.42-.25-.85-.5-.43-.24-.44-.24L83.25,38l-.89-.47-.25,0-.73.26-.78.29-.76.31-.71.33-.65.36-.57.33-.53.25-.49.14h-.5l-.54-.11-.58-.19-.62-.23-.45-.16V34.85l-.24-.3-.56-.13-1.12-.25L71.71,34l-.57-.12-.57-.11-1.14-.22-.26.07-.52.44-.49.44-.47.46-.41.47-.35.5-.29.43-.28.33L66,37l-.44.11-.58,0-.67,0L63.62,37l-.72-.05-.66-.07-.54-.12-.35-.16-.18-.22L61.07,36,61,35.58l-.09-.5-.18-.55L60.49,34l-.27-.52L59.93,33l-.28-.16H59l-1.2,0-.6,0-.6,0-.31,0V26.07l-.23-.3-.09,0v-5l0-.13L54.74,18.3l-.28-.15-3.61.17h-.07l-.11,0-.76-.69V14l-.15-.27L46.69,12h-.25l-3,1.19-.16,0-3.91-1.16-.65-.21v-2l-.26-.31L34.4,9l-.27.11L32.74,10.8l-.15.18-5,.15h-.13l-.23,0L25.42,9.26l-.27-.09-4,.71-.25.3v2.14L18,13.39l-1.05.38-.17,0L13.51,12.7l-.25,0L10.39,14.5l-.14.26v4.18l-.09.1-.12.09-.26,0-3.52,0L6,19.31,5.26,21,5,21.79V39l.23.3.09,0v5l0,.13,1.24,2.34.28.15,3.6-.17h.05l.13,0,.75.69v3.65l.15.27,3.08,1.66h.25l3-1.19.16,0,4.06,1.21.51.17v2l.26.31,1.82.27V72.8l.17.69.09.35.1.34.11.35.12.34.25.68.28.2.78,0,.92,0h1l.66,0V80.7l.1.23.64.59.33.29.34.29.34.29.35.28.71.56.26.06.76-.16.86-.19.85-.21.83-.24.8-.29L37,82l.61-.18.54-.08.49.06.27.1v5.07l.2.29.5.19,1,.38.51.19.51.18.52.18,1,.35.25,0,.66-.37.64-.37.62-.39.57-.41.51-.44.44-.39.41-.3.42-.19.49-.06.58,0,.64.11.69.15.69.14.62.15.47.17.11.08v2.15l0,.54.08.55.1.54.27.25.59.06,1.19.11.6.05.6,0,.6,0,1.19.07.27-.13.34-.49.33-.5.29-.51.24-.52.16-.54.13-.45.15-.34.21-.23.37-.15.55-.09L61,87l.73,0,.73,0h.67l.57,0,.42.13.29.22.24.34.24.44.27.48.37.5.42.48.46.48.46.46.26.09.58-.08,1.17-.18.58-.09.58-.1.57-.1,1.14-.21.25-.31v-4.1l.34-.12.65-.19.64-.2.6-.17.56-.09.5,0,.47.15.49.27.53.35.58.37.67.36.71.34.72.31.76.32h.25l.47-.21.94-.43.47-.22.46-.23.45-.23.89-.46.17-.28V79.86L85,80l1.49.39.82.17.85.14.88.12,1,.12.27-.1.56-.62.28-.31.27-.32.26-.32.25-.32.49-.63.06-.19v-5l.3,0,.77-.09,1-.13.27-.27.08-.7,0-.35,0-.35,0-.36V53ZM92.66,47.5V52l-.57-.07-.89-.08-1.66-.06-.72-.06-.5-.12L88,51.4l-.18-.26-.13-.34-.11-.4L87.47,50l-.08-.34,0-.23.12-.18.36-.19.6-.19,1.5-.38.8-.25.78-.28.76-.3ZM10.87,15.42l1.48,1.23-1.48,1.61ZM5.62,22.2l2.69.73.26.08.17,2.7v0l-3.11,1Zm.92,23.21-.6-1.15V28.34l.6,1.14Zm5-11.74-.09.22V46.63l-.3-.28-.19-.12-.16-.05-.28,0-3.31.16V29.69l3.31-.16h.06l.12,0L13.28,32ZM12,51V34.41l2.44,1.32V52.27ZM22.58,52.6l-3.12-1-1.18-.36-.27,0-.17,0-2.75,1.08V35.75l2.76-1.11.16,0,4.27,1.27.35.12Zm.36-17.14-3.55-1.12L18.28,34,18,34l-.17,0-3,1.2-2.56-1.38,1.38-1.33.24-.25.09-.2v-.17l0-.13-.12-.17-2.66-2.46L10.94,29l-.18-.06-.28,0L7,29.08l-1-1.81,1.64-.54L9,26.33l.16-.09.13-.14.07-.15,0-.23L9.21,23.2l0-.34-.06-.16L9,22.56l-.16-.11-3.12-.87.72-1.83,3.31,0H10l.2,0,.17-.08,2-2.08.55-.6.1-.17,0-.17v-.08l0-.07,0-.08L11.08,14.8l2.37-1.46,2.39.82.71.24.22,0h.13l4.16-1.46.43-.18.13-.08.12-.13,0-.1,0-.17h0l-.26-1.84,3.54-.62.39.4,1.31,1.35.15.1.16.06.47,0,4.7-.1.36,0,.16-.05.16-.1L34.5,9.62l3.63.48,0,1.77h0V12l.06.18.06.09h0l.16.13L42,13.54l1,.3.27,0h.15l3.06-1.2L49.09,14l-1.44,1.39-.18.2-.09.19v.08h0v0l0,.11.11.18,2.65,2.46.22.14.18.06.28,0,3.45-.17,1,1.81-2.79.9-.2.09-.13.1-.08.1-.06.15,0,.23h0l.14,2,0,.76.06.19.11.16.16.12,3.13.87-.73,1.83-3.3,0-.31,0-.17,0-.17.09-2.11,2.24-.39.44-.08.15,0,.17h.35l-.35,0v.1l.05.12,1.87,1.59-2.37,1.47-2.19-.75-.88-.3-.24,0h0l-.25,0-4.37,1.57-.18.1-.15.16,0,.1,0,.17.26,1.84L36.24,38l-1.66-1.71-.19-.13-.2-.07-.44,0-4.63.09-.41,0-.18.05-.15.09-1.55,1.87-3.63-.48,0-1.77v-.12l0-.14-.08-.13ZM49.3,14.7V17l-1.25-1.13Zm6.09,6.5v4.37L53.11,25l-.34-.1-.18-2.7h0v0Zm.32,6.49V33l-.32,0V28.49Zm-1.6,7.72v1.38l-.06.11-.28.18-.5.16-.63.12-.71.11-.7.12-.16,0V33.1L51,32.86l-2-1.65,2.12-2.33.16-.15.28,0,3.21,0v4.35l-.2.16-.16.52-.14.53-.11.54,0,.54v0h0Zm-3.65-1.75v4l-.46,0-.48-.07-.39-.2-.37-.31-.39-.4-.14-.14V35ZM41.1,35.9l-.21.29V41l-.39.17-.05,0V37.68l-.3-2,4.22-1.53.19,0,3,1V36l-.2-.16-.58-.42L46.22,35l-.61-.39-.25,0-.54.15-1.08.31-.54.16-.53.17Zm.41,1.69.15.27.33.5.77.89.22.33,0,.18-.09.15-.31.24-.48.26-.57.27-.06,0Zm-1.69,3.75-.33,0-.52-.1-.59-.21-.65-.28-.7-.3-.59-.2V38.65l3.38-.6Zm-9.28.44-.12.24V47l-.34,0-.79-.06-.89,0H27.27V38.68L28.62,37l.13-.15,5-.15h.22l.17,0,1.73,1.76v1.58l-.34-.1-.79-.21-.92-.23-.25,0-.39.27-.77.54-.38.27-.37.28-.36.28Zm.58.91.57.41.61.4.64.37.69.33.62.29.48.27L35,45l0,.14-.1.23-.24.33-.32.37-.31.38-.3.32-.33.24-.4.15-.55,0-.69-.05L31.05,47V42.64ZM25.26,49l-.25.68,0,.11v5.34l-.1,0-.06.08L23.2,55V38.38l3.46.47v8h-.2l-.28.17-.33.67-.16.34-.15.34-.15.35Zm.69,1.31.82.24.83.22.91.2,1.62.26.66.14.43.17.18.19.08.24v.34l0,.41,0,.42,0,.34-.11.25-.22.19-.45.15-.66.11-1.65.2-.86.15-.85.18-.85.21-.12,0V50.23Zm-.45,23.2-.06-.21-.16-.65v-15l.22.6Zm3.69-10.09V75.19l-.66,0h-.88l-.9,0-.62,0V58.53l.45,0,.92,0h1l.89,0,1.68-.14.7,0,.54.06.38.16.3.25.26.33.26.38.28.39.2.33.07.23,0,.15-.26.21-.51.25-.66.27-.71.29-.69.34-.65.37-.63.39-.61.39Zm2.69,18.9-.54-.44L31,81.63l-.33-.29-.32-.29-.54-.49V64.16l.12.11.33.29.34.29.34.29.35.28.59.47ZM39,69.53l0,.15V81.2l-.1,0-.06,0-.56-.07h-.08l-.6.08-.69.2-.71.26-.73.27-.77.23-.81.2-.84.19-.49.1V66l.51-.11.86-.19.92-.23.76-.22.8-.29.68-.25.61-.18.54-.08.49.06.48.17.5.25.52.3.53.29.45.27.28.24.07.15-.06.18-.27.32-.41.4-.44.44-.4.49-.34.5-.31.51ZM43,88l-1.14-.39-.51-.18-.5-.18-.5-.19-.8-.31V70.13l.08,0,1,.38.51.19.51.18.52.18.83.28Zm9.21-18-.09.45-.09.5,0,.56V85.9l-.38-.14L51,85.6l-.7-.14-.69-.15-.67-.12-.65-.05h-.06l-.56.07-.09,0-.49.22-.06,0-.45.33-.47.41-.47.41-.54.38-.59.37-.63.37-.2.11V71.33l.5-.28.64-.37.62-.39.57-.41.51-.44.44-.39.41-.3.42-.19.49-.06.58,0,.64.11.69.15.69.14.62.15.47.17.25.18.08.2ZM57,90.38l-1.46-.09-.59,0-.59-.05-.59-.05-.9-.09V73.42l1.44.14.6.05.6,0,.6,0,.9.06Zm9.79-.82-.36-.38L66,88.73l-.33-.44-.26-.46-.25-.45L64.9,87l-.06-.06-.37-.29-.1-.05-.51-.15H63.8l-.62-.05h-.72l-.74,0-.73,0-.7,0-.63.11-.07,0-.47.19-.11.08-.29.32-.06.09-.18.41-.15.5-.14.48-.21.46-.27.47-.09.14V73.56l.29-.41.33-.5.29-.51.24-.52.16-.54.13-.45.15-.34.21-.23.37-.15.55-.09.67,0,.73,0,.73,0h.67l.57,0,.42.13.29.22.24.34.24.44.27.48.37.5.42.48.46.48.37.37Zm4.61-.28-1.46.27-.57.1-.58.09-.58.09-.81.12V73.33l1.48-.22.58-.09.58-.1.57-.1.78-.14ZM80,86.41l-.31-.13L79,86l-.68-.32-.63-.34-.57-.37-.54-.35-.55-.3-.05,0-.54-.18-.09,0-.57,0h-.06l-.6.1-.66.18-.65.21-.65.19-.16.05V72.29l0-.55-.05-.54-.09-.54-.15-.54-.23-.53-.2-.44-.1-.33,0-.18.18-.18.41-.2.57-.2.65-.19.64-.2.6-.17.56-.09.5,0,.47.15.49.27.53.35.58.37.67.36.71.34.72.31.57.24Zm3.67-1.51-1.17.6-.45.22-.46.22-.47.22-.5.23V69.82l1.23-.57.47-.22.46-.23.45-.23.44-.23Zm6-4.63-.54-.07-.88-.12-.86-.14-.82-.16-1.53-.4-.7-.14h-.07V67.84l-.07-.2-.4-.48-.42-.47L83,66.23l-.5-.44-.56-.41-.5-.36-.36-.31L81,64.51l0-.13.2-.24.37-.3.45-.32.44-.34.42-.29.43-.21.46-.1.55,0,.66.13,1.49.39.9.18.78.12.88.12.74.09ZM91.85,78l-.42.55-.25.31-.25.31-.26.31-.27.31,0,0V63.49l.48-.53.28-.31.27-.32.26-.32.19-.23Zm2.36-5.67-.62.08-.89.1-.24,0V60.88l-.18-.28-.71-.34-.71-.33-.72-.31-.75-.28-.78-.24-.75-.22-.58-.21-.33-.2-.09-.17v-.23l.12-.34.18-.4.17-.41.17-.34.22-.26.32-.18.52-.1.69,0H91l.9,0,.79-.07,1-.11.55-.07ZM94.38,53v1l0,.33,0,.34-.05.45-.65.08-.89.1-.88.08-.87,0H89.28l-.74,0-.63.12-.1,0-.41.23-.08.07-.28.32,0,.06-.2.38-.18.43-.18.4-.15.42,0,.09,0,.36,0,.16.17.32.11.12.43.26.05,0,.61.22.75.22.76.23.73.27.71.3.7.33.36.17-.25.33-.25.31-.25.31-.26.31-.27.31-.45.49L89.21,63l-.88-.12-.86-.14-.82-.16-.79-.2-.75-.2-.7-.14-.66,0h-.08l-.54.12-.07,0-.48.23-.49.33-.45.35-.45.33-.42.34,0,0-.27.33-.07.14-.07.33,0,.23.21.34.06.07.4.35.53.39.53.39.47.41.43.44.41.46.15.18-.1.05-.89.46-.45.22-.46.22-.47.22-.82.37L79.74,69,79,68.72l-.68-.32-.63-.34-1.11-.72L76,67,76,67l-.54-.18-.09,0-.57,0h-.06l-.6.1-.66.18-.65.21-.65.19-.61.21-.51.25L71,68l-.29.29-.09.18,0,.36v.13l.12.41.22.5.21.47.13.47.08.49,0,.51V72l-.3.06-1.14.21-.57.1-.58.09-.58.09-1,.15-.34-.34-.44-.45L66,71.48,65.7,71l-.26-.46-.25-.45-.3-.42-.06-.06-.37-.29-.1-.05-.51-.15H63.8l-.62-.05h-.72l-.74,0-.73,0-.7,0-.63.11-.07,0-.47.19L59,69.6l-.29.32-.06.09-.18.41-.15.5-.14.48-.21.46-.27.47-.32.48-.24.34-.42,0L55.54,73l-.59,0-.59-.05-.59-.06-1-.09-.05-.29L52.68,72l0-.49,0-.47.09-.47.09-.47,0-.47,0-.12-.13-.35L52.6,69l-.36-.26-.07,0-.53-.19L51,68.35l-.7-.14-.69-.15-.67-.12-.65-.05h-.06l-.56.07-.09,0L47,68.2l-.06,0-.45.33-.47.41-.47.41-.53.38-.59.37-.63.37-.54.3-.39-.13-1-.33-.56-.2-.5-.18-.5-.19-.66-.26.1-.19.29-.48.32-.46.36-.44.42-.42.42-.41.34-.4.05-.09.12-.35V66L42,65.71l-.08-.11-.35-.3,0,0L41,65l-.54-.29-.52-.3-.53-.27-.57-.2-.06,0-.56-.07h-.08l-.6.09-.69.2-.71.26-.73.27-.77.23-.81.2-.84.19-.72.15L32,65.23l-.69-.56L31,64.39l-.33-.29-.32-.29L30,63.5l.27-.17.62-.38.63-.36.65-.33.69-.29.67-.27.57-.28.06,0,.36-.29.1-.16.09-.33v-.17l-.1-.36,0-.07-.23-.38-.3-.41-.26-.39-.3-.38,0,0-.36-.3L33,58l-.46-.2-.09,0-.61-.06h0l-.73,0-1.68.14-.87,0h-.88l-.9,0-.71,0-.17-.48-.12-.33-.11-.34-.1-.33-.09-.34-.1-.39.53-.14.83-.2.83-.18.83-.15,1.65-.2.71-.12.58-.19.11-.06.32-.28.08-.11.16-.35,0-.08.06-.4,0-.45,0-.42v-.52L32,51.5l-.07-.12-.28-.29L31.5,51l-.51-.2h0l-.68-.15-1.64-.26-.81-.18L27,50l-.8-.23-.49-.15.14-.36.13-.33.14-.33.15-.33.16-.33.24-.49h1.62l.89,0,.86.06,1.64.21.74.06h0l.62,0,.09,0,.48-.18.07,0,.39-.28,0,0,.33-.35.32-.4.33-.37.29-.39,0-.07.15-.35,0-.17-.05-.33-.09-.18-.33-.3-.06,0L34.56,44l-.65-.31-.66-.32L32.64,43l-.58-.38-.56-.4L31.25,42l0,0,.71-.55.36-.27.37-.27.38-.27.65-.45.7.18.82.22.78.23.75.26.69.29.66.28.64.23.64.12h.08l.57-.05h.06l.56-.17.59-.26.56-.28.57-.27.52-.28.42-.31.08-.09.18-.31,0-.23-.08-.35,0-.1-.27-.39-.39-.45L42.5,38l-.3-.45-.26-.47-.23-.49-.09-.2.72-.24,1-.33.53-.16.53-.16.94-.27.49.31.59.39.55.4.49.4.82.84.44.37.06,0,.46.24.09,0,.56.09H50l.63,0,.71-.1.71-.12.71-.11.67-.13.58-.18.07,0,.39-.24.11-.12.17-.34,0-.12,0-.42,0-.52,0-.48,0-.47.1-.49.14-.5.09-.31,1.57-.09.6,0,.6,0,.6,0,1,0,.19.34.26.49.22.48.16.46.08.47.08.47.14.46.05.1.26.33.11.09.45.21.07,0,.59.13.71.08.73.05.72.06.7,0h0l.63,0h.06l.53-.13.1,0,.4-.27.06-.05.32-.38.32-.47.31-.45.38-.43.44-.43.48-.43.4-.34,1.56.3.56.11.56.12.56.12.83.19,0,.23-.11.51-.14.49-.19.46-.26.46-.26.45-.19.45.29.12h-.31v.36l.08.2.26.3.08.07.45.25.58.23.67.23.62.23.62.2.62.13H77l.56-.16.05,0,.56-.27.6-.34.61-.35.67-.31.72-.3.75-.28.65-.23.32.17.88.47.43.24.43.24.42.24.49.29L85,40l-.46.45-.48.42-.51.39-.57.36-.55.35-.46.35-.06.06-.25.33-.06.21,0,.33.05.15.23.34,0,0,.36.34.43.36.4.35.43.33.5.28.07,0,.52.14h.7l.74-.12,1.59-.34.84-.13.87-.1.89-.08.74-.06.38.5.23.31.23.31.22.32.21.32.22.34-.4.17-.74.3-.75.28-.76.24-1.54.39-.66.21-.05,0-.46.24-.11.1-.21.31-.05.15,0,.36v.09l.09.4.14.44.12.41.16.42,0,.07.24.33.08.08.38.25.1,0,.57.14.76.07,1.7.06.86.08.87.11.87.13.62.1ZM73.58,37.12v1.79l-.09,0-.38-.22-.15-.17V38.3l.14-.33.25-.43Zm11.78,3.41V45h-.6l-.44-.12-.4-.22-.39-.3-.4-.35-.42-.35-.33-.31-.17-.24V43l.15-.2.4-.3.55-.34.58-.37.55-.42.51-.45ZM42.67,23.87c0-3.88-5.38-7-12-7s-12,3.15-12,7,5.38,7,12,7S42.67,27.75,42.67,23.87Zm-23.49,0c0-3.6,5.16-6.53,11.5-6.53s11.5,2.93,11.5,6.53S37,30.4,30.68,30.4,19.18,27.47,19.18,23.87ZM59.72,42.6c-10.08,0-18.28,4.79-18.28,10.67,0,3.58,3,6.75,7.7,8.68l.64.26a29.46,29.46,0,0,0,19.89,0L70.3,62C75,60,78,56.85,78,53.27,78,47.38,69.8,42.6,59.72,42.6Zm0,20.84A28.2,28.2,0,0,1,50.51,62a29.26,29.26,0,0,1,18.41,0A28.19,28.19,0,0,1,59.72,63.44Zm9.94-1.74a29.46,29.46,0,0,0-19.89,0c-4.72-1.83-7.84-4.92-7.84-8.43,0-5.61,8-10.17,17.78-10.17S77.5,47.66,77.5,53.27C77.5,56.77,74.39,59.86,69.67,61.69Z"></path></svg>