<?xml version="1.0" encoding="utf-8"?>
<!-- Generator: Adobe Illustrator 23.0.1, SVG Export Plug-In . SVG Version: 6.00 Build 0)  -->
<svg version="1.1" id="Layer_1" xmlns="http://www.w3.org/2000/svg" xmlns:xlink="http://www.w3.org/1999/xlink" x="0px" y="0px"
	 viewBox="0 0 100 125" style="enable-background:new 0 0 100 125;" xml:space="preserve">
<rect x="7.2" y="92.1" width="84" height="5.7"/>
<polygon points="46.9,69.6 44.6,73.5 46.9,77.5 51.5,77.5 53.8,73.5 51.5,69.6 "/>
<path d="M49.2,64.8c-4.8,0-8.8,3.9-8.8,8.8s3.9,8.8,8.8,8.8s8.8-3.9,8.8-8.8S54,64.8,49.2,64.8z M52.1,78.5h-5.8l-2.9-5l2.9-5h5.8
	l2.9,5L52.1,78.5z"/>
<path d="M23.6,25c-4.2,0-7.7,3.4-7.7,7.7s3.4,7.7,7.7,7.7s7.7-3.4,7.7-7.7S27.9,25,23.6,25z M26.8,37.3l-5.6,0.5l-3.2-4.6l2.4-5.1
	l5.6-0.5l3.2,4.6L26.8,37.3z"/>
<polygon points="25.5,28.7 21.1,29.1 19.2,33.1 21.8,36.7 26.2,36.3 28,32.3 "/>
<path d="M31,37.3c-1.5,2.4-4.3,4.1-7.3,4.1c-0.7,0-1.3-0.1-2-0.2L39.5,74c0-0.1,0-0.3,0-0.4c0-5.4,4.4-9.8,9.8-9.8
	c1.4,0,2.8,0.3,4,0.9L31,37.3z"/>
<path d="M55.8,13.9c-2.1-1-3.7-3.2-3.8-5.7L24.2,24c4.5,0.3,8.1,4.1,8.1,8.6c0,0.6-0.1,1.2-0.2,1.8L55.8,13.9z"/>
<polygon points="56.7,5.7 55.8,8.5 57.8,10.7 60.7,10.1 61.6,7.3 59.6,5 "/>
<path d="M58.7,2.2c-3.2,0-5.7,2.6-5.7,5.7s2.6,5.7,5.7,5.7s5.7-2.6,5.7-5.7S61.8,2.2,58.7,2.2z M61.2,10.7l-3.8,0.8l-2.6-2.9L56.1,5
	l3.8-0.8l2.6,2.9L61.2,10.7z"/>
<path d="M83.3,22.7c-1.6-1.3-4.1-1-5.6,0.8s-1.3,4.3,0.3,5.6L83.3,22.7z"/>
<polygon points="84.8,22.7 90.1,25.8 92.8,29.6 91.4,32 90.7,32.5 90.1,32.1 90.2,31.2 90.8,30 89,27.6 86.4,26 81.9,31.4 
	83.9,33.7 86.6,35 87.8,34.1 88.6,33.9 89.1,34.4 88.8,35.2 86.6,37 82.4,35.1 78.4,30.5 "/>
<path d="M77,22.8c0.5-0.7,1.2-1.1,1.9-1.5L65.4,7.9c0,3.1-2.2,5.7-5,6.4L75.9,25C76.1,24.2,76.5,23.5,77,22.8z"/>
<path d="M69.7,91.1c-1.3-6.4-5.5-11.8-11.2-14.6c-1.3,3.9-4.9,6.7-9.3,6.7s-8-2.8-9.3-6.7c-5.7,2.8-9.9,8.2-11.2,14.6H69.7z"/>
</svg>
