<?xml version="1.0" encoding="utf-8"?>
<!-- Generator: Adobe Illustrator 25.2.1, SVG Export Plug-In . SVG Version: 6.00 Build 0)  -->
<svg version="1.1" id="Layer_1" xmlns="http://www.w3.org/2000/svg" xmlns:xlink="http://www.w3.org/1999/xlink" x="0px" y="0px"
	 viewBox="0 0 474 254.6" style="enable-background:new 0 0 474 254.6;" xml:space="preserve">
<style type="text/css">
	.st0{fill:#FFFFFF;}
</style>
<g id="Layer_2_1_">
	<g id="Layer_1-2">
		<path class="st0" d="M467,202.7h-16.4v-40.4c0-3.9-3.1-7-7-7h-36.7l32.4-58.6c1.9-3.4,0.6-7.6-2.7-9.5c-0.4-0.2-0.9-0.4-1.4-0.6
			c-8.6-2.3-17.5-3.4-26.4-3.3c-13.1-0.1-26,2.5-38,7.6c5-17.3,6.2-26,2.5-31.1c-1.6-2.3-4.2-3.7-7-3.8c-1.1,0-2.3-0.1-3.5-0.1
			c-9.3,0-29,1.7-48.1,13.8c2.8-8.5,5.7-18.2,8.2-26.5c6.5-22.2,6.2-25.1,3.9-28.3c-1.4-1.9-3.5-3-5.9-3c-0.6,0-1.2,0.1-1.9,0.2
			c-6.6,1.7-27.3,8-52.8,25.1L265,6.7c-0.2-3.9-3.4-6.9-7.3-6.7c-0.6,0-1.1,0.1-1.7,0.3c-0.9,0.3-23,7.2-49.6,23.2
			c-23.7,14.3-55.2,38.8-74.1,75.4c-4.5-0.7-8.6-1.2-12.3-1.6c-13.6-13.7-34.9-20.6-63.4-20.6c-13.8,0-27.5,1.5-41,4.4
			c-3.8,0.9-6.1,4.7-5.2,8.4c0.3,1.2,0.9,2.3,1.7,3.1c28.6,31.1,49,67.2,57.8,84.4H69c-0.6,0-1.2,0.1-1.8,0.2l-38.6,10.3
			c-3.1,0.8-5.2,3.6-5.2,6.8v8.2H7c-3.9,0-7,3.1-7,7v37.9c0,3.9,3.1,7,7,7h460c3.9,0,7-3.1,7-7v-37.9
			C474,205.8,470.9,202.7,467,202.7z M365.5,110.3c0-0.1,0-0.1,0-0.2l0.1-0.7c12.3-8.1,26.8-12.3,43.2-12.3c4.6,0,9.1,0.3,13.6,1
			l-31.5,57.1h-19c-1.2,0-2.4,0.3-3.5,0.9l-11.1,6.4l-2.8,1.6c0.5-2.8,1-5.7,1.6-8.7l0.6-3.1c0.2-1.1,0.4-2.2,0.6-3.3l0.1-0.6
			c0,0,0-0.1,0-0.1l1.9-9.4l0.4-1.9l0.1-0.5v-0.1l1.3-6.1c0.2-0.9,0.4-1.7,0.5-2.6L365.5,110.3z M361.5,69.8
			c-0.7,6.5-4.6,19.4-6.2,24.8c-1.2,3.9-2.1,7-2.6,9.1l0,0l-0.5,2.3c0,0,0,0.1,0,0.1l-0.5,2.1v0.1l-0.1,0.5
			c-0.6,2.8-1.3,5.7-1.9,8.7l-0.9,3.9c0,0,0,0.1,0,0.1l-1,4.7l-0.1,0.3l-0.2,0.9c0,0,0,0.1,0,0.1l-0.8,3.5c0,0,0,0.1,0,0.1l-0.7,3.5
			c0,0,0,0.1,0,0.1l-0.2,1.2c0,0.1,0,0.2,0,0.3l-0.1,0.7c-0.4,2.2-0.9,4.3-1.3,6.5l-0.6,3.2c0,0,0,0.1,0,0.1l-0.2,1.2
			c0,0.1,0,0.2-0.1,0.3l-1.2,6.5l-0.1,0.4l-0.4,2c0,0,0,0.1,0,0.1l-0.4,2v0.1l-0.5,3c-0.2,1.1-0.4,2.2-0.5,3.3l-0.4,2.2
			c0,0,0,0.1,0,0.1l-0.3,1.8v0.1l-0.2,1.2h-29.6c-0.6,0-1.2,0.1-1.8,0.2l-14.8,4c0-0.1,0-0.1,0-0.2c0-0.1,0-0.2,0-0.3
			c0-0.4,0-0.9-0.1-1.4c0-0.1,0-0.3,0-0.4c0-0.4,0-0.9,0-1.3v-0.5c0-0.5,0-1,0-1.5c0-0.1,0-0.2,0-0.4c0-1.3,0.1-2.7,0.2-4.1
			c0,0,0-0.1,0-0.1c0-0.7,0.1-1.3,0.1-2c0-0.1,0-0.3,0-0.4c0-0.6,0.1-1.2,0.2-1.9c0-0.2,0-0.3,0-0.5c0.1-0.7,0.1-1.3,0.2-2
			c0-0.1,0-0.2,0-0.4c0.2-1.7,0.4-3.4,0.7-5.2l0,0c0.1-0.9,0.2-1.8,0.4-2.7c0-0.1,0-0.3,0.1-0.5c0.1-0.8,0.2-1.6,0.4-2.3
			c0-0.2,0.1-0.4,0.1-0.6c0.1-0.8,0.3-1.6,0.4-2.4c0-0.1,0-0.3,0.1-0.5c0.5-3,1.1-6.1,1.7-9.3c0-0.2,0.1-0.4,0.1-0.6
			c0.2-0.9,0.4-1.8,0.5-2.7l0.1-0.7c0.2-0.9,0.4-1.8,0.6-2.7c0-0.2,0.1-0.4,0.1-0.6c0.2-1.1,0.5-2.2,0.7-3.3V124
			c0.5-2.3,1-4.7,1.6-7.1c0-0.2,0.1-0.4,0.1-0.6c0.2-1,0.5-2,0.7-3c0.1-0.3,0.1-0.6,0.2-0.8c0.2-1,0.5-1.9,0.7-2.9
			c0.1-0.3,0.1-0.5,0.2-0.8c0.3-1.1,0.6-2.3,0.9-3.4c0-0.1,0-0.2,0.1-0.2c0.7-2.6,1.3-5.2,2-7.8c0-0.2,0.1-0.4,0.2-0.7l0.6-2.1
			C325.8,73.2,350.2,70,361.5,69.8L361.5,69.8z M264,55.7c0.2-0.2,0.5-0.4,0.7-0.6c19.5-14.5,36.8-22.4,47.7-26.4
			C309,41.5,302,63.8,298.5,74.9c-2.2,7.1-3.9,12.2-4.4,14.3l0,0c-0.6,2.2-1.2,4.6-1.9,7c0,0.1-0.1,0.3-0.1,0.4
			c-0.2,0.7-0.4,1.4-0.6,2.2c0,0.2-0.1,0.4-0.1,0.5l-0.6,2.2c0,0.2-0.1,0.3-0.1,0.4c-0.8,3.3-1.6,6.7-2.5,10.2L288,113l-0.5,2.1
			l-0.2,1.1l-0.5,2c-0.1,0.4-0.2,0.8-0.3,1.2c-0.1,0.6-0.3,1.3-0.4,2l-0.3,1.2l-0.4,2c-0.1,0.4-0.2,0.8-0.2,1.1
			c-0.3,1.4-0.6,2.9-0.9,4.4c0,0.2-0.1,0.5-0.1,0.7c-0.1,0.6-0.2,1.2-0.4,1.8s-0.2,1-0.3,1.5s-0.2,1.1-0.3,1.7s-0.2,1-0.3,1.5
			l-0.3,1.7l-0.3,1.6c-0.1,0.6-0.2,1.1-0.3,1.7s-0.2,1.1-0.3,1.6s-0.2,1.1-0.3,1.6s-0.2,1.2-0.3,1.7l-0.2,1.4c-0.1,1-0.3,2-0.4,3
			c-0.1,0.4-0.1,0.9-0.2,1.3c-0.1,0.6-0.2,1.2-0.2,1.8l-0.1,1.4c-0.1,0.6-0.1,1.1-0.2,1.7s-0.1,0.9-0.1,1.4s-0.1,1.1-0.1,1.6
			s-0.1,0.9-0.1,1.3l-0.1,1.6c0,0.4-0.1,0.8-0.1,1.2c0,0.6-0.1,1.2-0.1,1.8c0,0.3,0,0.7,0,1c0,0.9-0.1,1.8-0.1,2.6v0.7
			c0,0.6,0,1.2,0,1.8c0,0.3,0,0.6,0,1c0,0.5,0,1,0,1.5c0,0.3,0,0.6,0,1v0.6h-0.2l-0.5-0.5l-2.6-2.7l-1.3-1.3c-1.3-1.3-2.7-2.6-4-3.8
			l-0.1-0.1c-1.3-1.3-2.7-2.5-4-3.7l-0.8-0.7c-1.3-1.1-2.5-2.2-3.8-3.3l-0.4-0.4c-17.7-15.3-37.2-28.3-58.1-38.7l1-1.6
			c0.8-1.1,1.5-2.3,2.3-3.4c0.5-0.7,1-1.5,1.5-2.2c0.7-1,1.4-2.1,2.2-3.1c0.6-0.8,1.1-1.6,1.7-2.3s1.3-1.8,2-2.8s1.3-1.7,1.9-2.6
			l1.8-2.3l2.3-2.8c0.5-0.6,1-1.2,1.5-1.8c0.9-1.1,1.8-2.2,2.7-3.3l1.1-1.2c1.1-1.3,2.2-2.6,3.4-3.9l0.4-0.5
			C239.7,76,251.3,65.2,264,55.7z M251.4,16.8l1.2,29.9l-0.4,0.3c-1.3,1-2.5,2-3.8,3l-0.7,0.6c-1,0.8-2,1.7-3,2.5l-1.3,1.1
			c-1,0.8-2,1.7-3,2.6c-0.6,0.5-1.2,1.1-1.8,1.6l-1.6,1.4c-1.1,1-2.2,2.1-3.3,3.1l-1,1c-2.4,2.3-4.8,4.7-7.1,7.1
			c-0.2,0.2-0.4,0.4-0.5,0.6c-2.5,2.6-4.9,5.2-7.3,7.9c-0.2,0.2-0.3,0.4-0.5,0.6c-2.4,2.7-4.7,5.5-7,8.3c-0.3,0.3-0.6,0.7-0.8,1
			c-2.2,2.7-4.3,5.5-6.4,8.3l-1.3,1.8l-1.7,2.3l-1.6,2.3c-0.6,0.9-1.3,1.8-1.9,2.8s-1.5,2.1-2.2,3.2l-1.2,1.8l-1.9,2.9
			c-0.2,0.3-0.4,0.7-0.6,1c-14.1-6.1-28.8-10.8-43.8-14.2C174.8,51.1,230.1,25.2,251.4,16.8z M115.8,111.1h0.2
			c5.2,0.4,11.2,1.2,18,2.3c0.3,0.1,0.6,0.2,0.9,0.2c19.1,3.5,37.7,9.4,55.4,17.5l0,0c24.5,11.2,47.1,26.2,67.1,44.3l0.4,0.4
			c0.5,0.4,1,0.9,1.5,1.3h-120l-13-28.8c0-0.1-0.1-0.2-0.1-0.3l-16.9-37.5C111.1,110.7,113.3,110.8,115.8,111.1z M123.9,177.2h-15.6
			l9.8-12.7L123.9,177.2z M30.7,92.8c8.6-1.2,17.2-1.9,25.9-1.9c11.7,0,26.2,1.3,38.5,6.6l-0.2,0.1l-0.4,0.3L94.1,98
			c-0.2,0.1-0.3,0.2-0.4,0.3l-0.3,0.2c-0.1,0.1-0.3,0.3-0.4,0.4c-0.1,0.1-0.1,0.1-0.2,0.2c-0.2,0.2-0.4,0.5-0.5,0.7l0,0l0,0
			c-0.1,0.2-0.2,0.3-0.2,0.5s-0.1,0.2-0.1,0.3c-0.1,0.1-0.1,0.3-0.1,0.4c0,0.1-0.1,0.3-0.2,0.4c0,0.1-0.1,0.2-0.1,0.3
			c0,0.2-0.1,0.3-0.1,0.5s0,0.2,0,0.3s0,0.4-0.1,0.5c-0.1,1.1,0.1,2.3,0.6,3.3l19.7,43.6l-21,27.1h-5.2
			C79.5,164.9,59.9,127.3,30.7,92.8z M37.4,199.9l32.5-8.7h217.8c0.3,0,0.5,0,0.8,0h0.1h0.2c0.2,0,0.4-0.1,0.5-0.1l0.2-0.1h0.1
			l21.2-5.7h33.5c0.1,0,0.3,0,0.4,0s0.3,0,0.5,0l0.4-0.1c0.1,0,0.3-0.1,0.4-0.1l0.4-0.1l0.4-0.1l0.4-0.2c0.1-0.1,0.2-0.1,0.3-0.2
			l0.1-0.1l0,0l1-0.5l0.2-0.1l15-8.7l9.9-5.7h62.8v33.4H37.4V199.9z M460,240.6H14v-5h223c3.9,0,7-3.1,7-7s-3.1-7-7-7H14v-5h446
			V240.6L460,240.6z"/>
	</g>
</g>
</svg>
