<?xml version="1.0" encoding="utf-8"?>
<!-- Generator: Adobe Illustrator 25.2.1, SVG Export Plug-In . SVG Version: 6.00 Build 0)  -->
<svg version="1.1" id="Layer_1" xmlns="http://www.w3.org/2000/svg" xmlns:xlink="http://www.w3.org/1999/xlink" x="0px" y="0px"
	 viewBox="0 0 96.1 47.7" style="enable-background:new 0 0 96.1 47.7;" xml:space="preserve">
<style type="text/css">
	.st0{fill:#FFFFFF;}
</style>
<g id="Layer_2_1_">
	<g id="Layer_1-2">
		<path class="st0" d="M96,28.3c-0.2-0.8-0.8-1.4-1.6-1.6c-0.7-0.1-10.7-1.8-22.2-3.1C67,11.6,59.6,0,48,0S29,11.6,23.9,23.6
			c-11.5,1.4-21.5,3-22.1,3.1c-0.8,0.1-1.5,0.8-1.6,1.6c-0.3,1,0.2,2,1.1,2.4c6.6,3.4,11.7,8.9,14.6,15.7c0.4,1,1.5,1.6,2.6,1.2
			c0.6-0.2,1-0.6,1.2-1.2c0.9-2.1,1.8-4.7,2.9-7.7c1.2-3.5,2.6-7.5,4.3-11.4c7.1-0.9,14.1-1.3,21.2-1.5c7.1,0.1,14.2,0.6,21.3,1.5
			c1.6,4,3,7.9,4.3,11.4c1.1,3,2,5.6,2.9,7.7c0.4,1,1.5,1.6,2.6,1.2c0.6-0.2,1-0.6,1.2-1.2c2.9-6.8,8.1-12.3,14.6-15.7
			C95.8,30.3,96.3,29.3,96,28.3z M58,22.3c-1.7-0.1-3.4-0.2-5-0.3V5.2c1.9,0.8,3.5,2,5,3.4V22.3z M38,8.6c1.5-1.4,3.1-2.6,5-3.4V22
			c-1.6,0.1-3.3,0.2-5,0.3V8.6z M7.6,29.8c2.3-0.4,5.2-0.8,8.4-1.2v9.8C13.7,35.1,10.9,32.2,7.6,29.8z M18.6,37.3
			c-0.2,0.6-0.4,1.1-0.6,1.7V28.4l4.1-0.5C20.8,31.1,19.7,34.4,18.6,37.3L18.6,37.3z M36,10.7v11.7c-2.5,0.2-5,0.4-7.5,0.7
			C30.5,18.6,33,14.5,36,10.7z M45,21.9V4.5c1-0.2,2-0.4,3-0.4c1,0,2,0.1,3,0.4v17.4c-1,0-2,0-3,0S46.1,21.9,45,21.9z M60,22.4V10.7
			c3,3.8,5.5,8,7.4,12.4C65,22.8,62.5,22.6,60,22.4z M73.9,27.8l4.1,0.5V39l-0.6-1.7C76.4,34.4,75.2,31.1,73.9,27.8L73.9,27.8z
			 M80,38.4v-9.7c3.2,0.4,6.1,0.9,8.4,1.2C85.2,32.2,82.3,35.1,80,38.4z"/>
	</g>
</g>
</svg>
