<?xml version="1.0" encoding="utf-8"?>
<!-- Generator: Adobe Illustrator 25.2.1, SVG Export Plug-In . SVG Version: 6.00 Build 0)  -->
<svg version="1.1" id="Layer_1" xmlns="http://www.w3.org/2000/svg" xmlns:xlink="http://www.w3.org/1999/xlink" x="0px" y="0px"
	 viewBox="0 0 78.2 78.2" style="enable-background:new 0 0 78.2 78.2;" xml:space="preserve">
<style type="text/css">
	.st0{fill:#FFFFFF;}
</style>
<g id="Layer_2_1_">
	<g id="Layer_1-2">
		<path class="st0" d="M51,51c4.5-4.5,6.5-10.9,5.9-18.5c-2-0.3-3.9-0.7-5.8-1.2l-0.3-0.1c0.2,1.7,0.3,3.4,0.2,5.2l-6.2-6.2
			c-1.4-0.1-2.8-0.1-4.2,0.1l9.8,9.8c-1.1,5.2-5.2,9.3-10.4,10.4l-9.8-9.8c-0.2,1.4-0.2,2.8-0.1,4.2l6.2,6.2
			c-3.4,0.1-6.8-0.3-10.1-1.2c-11-3-20.4-1.4-26.3,4.5l4.2,4.2c4.3-4.3,11.6-5.4,20.5-3C35.8,58.6,45.1,57,51,51z M48.4,18.5
			c2,0.3,3.9,0.7,5.8,1.2l0.3,0.1c-0.3-2.1-0.3-4.2-0.1-6.3l7.3,7.4c1.3,0,2.6-0.1,3.9-0.3L55.2,10c0.6-2.2,1.8-4.2,3.4-5.8L54.3,0
			C49.8,4.5,47.8,10.9,48.4,18.5z M23.6,58.4c0.3,2.1,0.3,4.2,0.1,6.3l-7.4-7.4c-1.3,0-2.6,0.1-3.9,0.3L23,68.2
			c-0.6,2.2-1.8,4.2-3.3,5.8l4.2,4.2c4.5-4.5,6.5-10.9,5.9-18.5c-2-0.3-3.9-0.7-5.8-1.2L23.6,58.4z M53.5,22.6
			c-11-3-20.4-1.4-26.3,4.5c-4.5,4.5-6.5,10.9-5.9,18.5c2,0.3,3.9,0.7,5.9,1.2l0.3,0.1c-0.8-6,0.2-11,3-14.4l13.1,13.1
			c0.4-0.3,0.8-0.6,1.2-1c0.4-0.4,0.7-0.8,1-1.2L32.5,30.4c4.4-3.5,11.2-4.2,19.4-2c11,3,20.4,1.4,26.3-4.5L74,19.7
			C69.6,24,62.3,25,53.5,22.6z"/>
	</g>
</g>
</svg>
