<?xml version="1.0" encoding="utf-8"?>
<!-- Generator: Adobe Illustrator 25.2.1, SVG Export Plug-In . SVG Version: 6.00 Build 0)  -->
<svg version="1.1" id="Layer_1" xmlns="http://www.w3.org/2000/svg" xmlns:xlink="http://www.w3.org/1999/xlink" x="0px" y="0px"
	 viewBox="0 0 89.1 74.1" style="enable-background:new 0 0 89.1 74.1;" xml:space="preserve">
<style type="text/css">
	.st0{fill:#FFFFFF;}
</style>
<g id="Layer_2_1_">
	<g id="Layer_1-2">
		<path class="st0" d="M77.3,41.2L77.3,41.2c-0.7,0-1.3,0.5-1.5,1.2c-1.7,7.8-6.2,14.6-12.7,19.3c-0.6,0.4-0.8,1.2-0.5,1.9l0,0
			c0.4,0.7,1.3,1.1,2,0.7c0.1,0,0.2-0.1,0.2-0.1c7-5.1,12-12.6,13.9-21.1c0.2-0.8-0.3-1.6-1.1-1.8C77.6,41.2,77.5,41.2,77.3,41.2z"
			/>
		<path class="st0" d="M61.5,7.1c0.7-0.4,1-1.3,0.6-2c-0.1-0.2-0.3-0.4-0.6-0.6C50.9-1.4,38-1.5,27.3,4.3c-0.7,0.4-1,1.3-0.6,2
			c0.1,0.2,0.3,0.4,0.6,0.6l0,0c0.5,0.3,1,0.3,1.5,0C38.5,1.6,50.3,1.7,60,7.1C60.5,7.4,61,7.4,61.5,7.1L61.5,7.1z"/>
		<path class="st0" d="M11.1,41.2L11.1,41.2c-0.8,0-1.5,0.7-1.5,1.5c0,0.1,0,0.2,0,0.3c1.9,8.7,7.1,16.3,14.4,21.4
			c0.7,0.5,1.6,0.3,2.1-0.3c0-0.1,0.1-0.1,0.1-0.2l0,0c0.3-0.7,0.1-1.5-0.5-1.9C19,57.3,14.4,50.4,12.6,42.4
			C12.4,41.7,11.8,41.2,11.1,41.2z"/>
		<path class="st0" d="M54.7,50.5c0-5.6-4.5-10.1-10.1-10.1s-10.1,4.5-10.1,10.1c0,5.6,4.5,10.1,10.1,10.1c0,0,0,0,0,0
			C50.1,60.5,54.6,56,54.7,50.5z M37.5,50.5c0-3.9,3.2-7.1,7.1-7.1c3.9,0,7.1,3.2,7.1,7.1c0,3.9-3.2,7.1-7.1,7.1c0,0,0,0,0,0
			C40.7,57.5,37.5,54.4,37.5,50.5z"/>
		<path class="st0" d="M56.6,72.9c0.1,0.7,0.7,1.2,1.4,1.2h0.2c0.8,0,1.4-0.6,1.4-1.4c0-0.1,0-0.1,0-0.2c-0.8-5.7-5.6-9.9-11.3-9.9
			h-7.4c-5.7,0-10.5,4.2-11.3,9.9c-0.1,0.8,0.5,1.5,1.2,1.5c0.1,0,0.1,0,0.2,0h0.2c0.7,0,1.3-0.5,1.4-1.2c0.6-4.1,4.2-7.2,8.3-7.2
			h7.4C52.5,65.7,56,68.8,56.6,72.9z"/>
		<path class="st0" d="M25.1,14.2c0-5.6-4.5-10.1-10.1-10.1C9.5,4.1,4.9,8.6,4.9,14.2c0,5.6,4.5,10.1,10.1,10.1
			C20.6,24.3,25.1,19.8,25.1,14.2C25.1,14.2,25.1,14.2,25.1,14.2z M8,14.2c0-3.9,3.2-7.1,7.1-7.1s7.1,3.2,7.1,7.1
			c0,3.9-3.2,7.1-7.1,7.1c0,0-0.1,0-0.1,0C11.1,21.2,8,18.1,8,14.2z"/>
		<path class="st0" d="M0,36.3c-0.1,0.8,0.5,1.5,1.2,1.5c0.1,0,0.1,0,0.2,0h0.2c0.7,0,1.3-0.5,1.4-1.2c0.6-4.1,4.2-7.2,8.3-7.2h7.4
			c4.2,0,7.7,3.1,8.3,7.2c0.1,0.7,0.7,1.2,1.4,1.2h0.2c0.8,0,1.4-0.6,1.4-1.4c0,0,0-0.1,0-0.1c-0.8-5.7-5.6-9.9-11.3-9.9h-7.4
			C5.6,26.4,0.8,30.6,0,36.3z"/>
		<path class="st0" d="M84.2,14.2c0-5.6-4.5-10.1-10.1-10.1C68.6,4.1,64,8.6,64,14.2c0,5.6,4.5,10.1,10.1,10.1c0,0,0,0,0,0
			C79.7,24.3,84.2,19.7,84.2,14.2z M67.1,14.2c0-3.9,3.2-7.1,7.1-7.1s7.1,3.2,7.1,7.1s-3.2,7.1-7.1,7.1
			C70.2,21.3,67.1,18.1,67.1,14.2z"/>
		<path class="st0" d="M87.7,37.8L87.7,37.8c0.8,0,1.4-0.6,1.4-1.4c0-0.1,0-0.1,0-0.2c-0.8-5.7-5.6-9.9-11.3-9.9h-7.4
			c-5.7,0-10.5,4.2-11.3,9.9c-0.1,0.8,0.4,1.4,1.2,1.5c0.1,0,0.1,0,0.2,0h0.2c0.7,0,1.3-0.5,1.4-1.2c0.6-4.1,4.2-7.2,8.3-7.2h7.4
			c4.2,0,7.7,3.1,8.3,7.2c0.1,0.7,0.7,1.2,1.4,1.2H87.7z"/>
	</g>
</g>
</svg>
