<?xml version="1.0" encoding="utf-8"?>
<!-- Generator: Adobe Illustrator 25.2.1, SVG Export Plug-In . SVG Version: 6.00 Build 0)  -->
<svg version="1.1" id="Layer_1" xmlns="http://www.w3.org/2000/svg" xmlns:xlink="http://www.w3.org/1999/xlink" x="0px" y="0px"
	 viewBox="0 0 98.1 98.1" style="enable-background:new 0 0 98.1 98.1;" xml:space="preserve">
<style type="text/css">
	.st0{fill:#FFFFFF;}
</style>
<g id="Layer_2_1_">
	<g id="Layer_1-2">
		<path class="st0" d="M93.7,0H4.4C2,0,0,2,0,4.4v89.3c0,2.4,2,4.4,4.4,4.4h89.3c2.4,0,4.4-2,4.4-4.4V4.3C98.1,1.9,96.1,0,93.7,0
			C93.7,0,93.7,0,93.7,0z M94.6,93.6c0,0.5-0.4,0.9-0.9,0.9l0,0H4.4c-0.5,0-0.9-0.4-0.9-0.9l0,0V18.5h91.1V93.6z M94.6,15H3.5V4.3
			c0-0.5,0.4-0.9,0.9-0.9c0,0,0,0,0,0h89.3c0.5,0,0.9,0.4,0.9,0.9c0,0,0,0,0,0V15z"/>
		<circle class="st0" cx="11" cy="9.1" r="2.8"/>
		<circle class="st0" cx="19.7" cy="9.1" r="2.8"/>
		<circle class="st0" cx="28.4" cy="9.1" r="2.8"/>
		<path class="st0" d="M37.7,73.5c0.3,0.1,0.5,0.2,0.8,0.2c0.6,0,1.2-0.3,1.5-0.9l19.8-37.2c0.4-0.9,0.1-1.9-0.8-2.4
			c-0.8-0.4-1.8-0.1-2.3,0.7L37,71.2c-0.5,0.8-0.2,1.8,0.6,2.2C37.6,73.5,37.7,73.5,37.7,73.5z"/>
		<path class="st0" d="M15.3,52.6L15.3,52.6c0,0.2,0,0.3,0.1,0.4v0.3l0,0c0,0.1,0.1,0.1,0.1,0.2l0,0c0,0.1,0.1,0.1,0.1,0.2l0,0
			l0.1,0.1l0,0l0.1,0.1l0,0c0.1,0,0.1,0.1,0.2,0.1l17.2,8.2c0.2,0.1,0.5,0.2,0.7,0.2c0.7,0,1.3-0.4,1.6-1c0.4-0.9,0-1.9-0.8-2.3
			l-14-6.7l14-6.7c0.9-0.4,1.2-1.4,0.8-2.3s-1.4-1.2-2.3-0.8L16,50.8l0,0c-0.1,0-0.1,0-0.1,0.1h-0.1c-0.1,0-0.1,0-0.1,0.1h-0.1
			l-0.1,0.1l-0.1,0.1l-0.1,0.1l-0.1,0.1l-0.1,0.1c0,0.1,0,0.1-0.1,0.1v0.3l0,0v0.3c0,0.1-0.1,0.3-0.1,0.4l0,0
			C15.3,52.5,15.3,52.5,15.3,52.6L15.3,52.6z"/>
		<path class="st0" d="M60.9,61.5c0.3,0.6,0.9,1,1.6,1c0.2,0,0.5-0.1,0.7-0.2l17.2-8.2c0.1,0,0.1-0.1,0.2-0.1l0,0
			c0.1,0,0.1,0,0.1-0.1l0,0l0.1-0.1l0,0c0-0.1,0.1-0.1,0.1-0.2l0,0c0-0.1,0.1-0.1,0.1-0.2l0,0v-0.3c0-0.1,0.1-0.3,0.1-0.4l0,0v-0.2
			l0,0c0-0.1,0-0.3-0.1-0.4v-0.3l0,0v-0.3c0-0.1,0-0.1-0.1-0.1l-0.1-0.1l-0.1-0.1l-0.1-0.1L80.5,51c-0.1,0-0.1,0-0.1-0.1h-0.1
			c-0.1,0-0.1,0-0.1-0.1l0,0c-0.1,0-0.1,0-0.1-0.1l0,0l-16.9-7.9c-0.9-0.4-1.9-0.1-2.3,0.8s-0.1,1.9,0.8,2.3l14,6.7l-14,6.7
			C60.9,59.7,60.5,60.7,60.9,61.5C60.9,61.5,60.9,61.5,60.9,61.5z"/>
	</g>
</g>
</svg>
