<?xml version="1.0" encoding="utf-8"?>
<!-- Generator: Adobe Illustrator 25.2.1, SVG Export Plug-In . SVG Version: 6.00 Build 0)  -->
<svg version="1.1" id="Layer_1" xmlns="http://www.w3.org/2000/svg" xmlns:xlink="http://www.w3.org/1999/xlink" x="0px" y="0px"
	 viewBox="0 0 60 37" style="enable-background:new 0 0 60 37;" xml:space="preserve">
<style type="text/css">
	.st0{fill:#FFFFFF;}
</style>
<g id="Layer_2_1_">
	<g id="Layer_1-2">
		<path class="st0" d="M40.2,5h11.9c0.6,2.1,2.7,3.4,4.9,2.9c2.1-0.6,3.4-2.7,2.9-4.9S57.2-0.4,55,0.1c-1.4,0.4-2.5,1.5-2.9,2.9H34
			V0h-8v3H7.9C7.3,0.9,5.1-0.4,3,0.1S-0.4,2.9,0.1,5S2.8,8.4,5,7.9C6.4,7.5,7.5,6.4,7.9,5h11.9C10,9,3.4,18.4,3,29H0v8h8v-8H5.1
			C5.5,17.1,14.3,7.2,26,5.3V8h8V5.3C45.7,7.2,54.5,17.1,55,29h-3v8h8v-8h-3C56.6,18.4,50,9,40.2,5z M6,35H2v-4h4V35z M56,2
			c1.1,0,2,0.9,2,2s-0.9,2-2,2s-2-0.9-2-2S54.9,2,56,2z M4,6C2.9,6,2,5.1,2,4s0.9-2,2-2s2,0.9,2,2S5.1,6,4,6z M32,6h-4V2h4V6z
			 M58,35h-4v-4h4V35z"/>
	</g>
</g>
</svg>
