<?xml version="1.0" encoding="utf-8"?>
<!-- Generator: Adobe Illustrator 25.2.1, SVG Export Plug-In . SVG Version: 6.00 Build 0)  -->
<svg version="1.1" id="Layer_1" xmlns="http://www.w3.org/2000/svg" xmlns:xlink="http://www.w3.org/1999/xlink" x="0px" y="0px"
	 viewBox="0 0 170.1 182.9" style="enable-background:new 0 0 170.1 182.9;" xml:space="preserve">
<style type="text/css">
	.st0{fill:#FFFFFF;}
</style>
<g id="Layer_2_1_">
	<g id="Layer_1-2">
		<path class="st0" d="M116,182.9c-7.1,0-13.9-2.2-19.7-6.3l-0.3-0.2c-14.7-12.7-30.7-24-47.6-33.6l-0.4-0.2
			c-7.1-4.8-8.9-14.5-4.1-21.6c4.7-6.8,13.9-8.8,20.9-4.6l7.4,4.3L50,64.1c-3-7.5,0.7-16,8.3-19c0.4-0.2,0.8-0.3,1.2-0.4
			c7.4-2,15.1,1.9,17.8,9l9.4,23.7c4.9-5,12.8-5.4,18.2-1c1.5-2,3.5-3.5,5.8-4.4c4-1.6,8.3-0.6,11.8,1.7c3.6-5.7,11.2-7.4,16.9-3.8
			c2.2,1.4,3.9,3.4,4.8,5.9l24,60.5c5.4,13.7-1.3,29.3-15,34.7l0,0l-24.6,9.7C124.7,182.1,120.3,182.9,116,182.9z M101,170.2
			c7.2,5,16.4,6.1,24.6,2.9l24.6-9.6c9.6-3.8,14.4-14.7,10.6-24.3l0,0l-24-60.5c-1-2.2-3.5-3.1-5.7-2.2c-2,0.9-3,3.1-2.3,5.2
			l8.5,21.4c0.8,2.1-0.2,4.4-2.2,5.2s-4.4-0.2-5.2-2.2l-8.5-21.2l-0.1-0.3l-0.3-0.7c-1.2-3.1-5-5.3-7.4-4.4
			c-1.3,0.5-2.4,1.5-2.9,2.8c-0.5,1.2-0.6,2.5-0.2,3.7l8,20.2c0.8,2.1-0.2,4.4-2.2,5.2c-2.1,0.8-4.4-0.2-5.2-2.2l-7.9-19.8
			c-0.1-0.2-0.2-0.4-0.2-0.6l-1.5-3.8c-1.1-2.8-4.3-4.3-7.2-3.1c-2.6,1-4,3.7-3.4,6.4l8,20.1c0.8,2.1-0.2,4.4-2.2,5.2
			s-4.4-0.2-5.2-2.2l-7.7-19.5c-0.2-0.4-0.3-0.8-0.4-1.2l-13.5-34c-1.2-3.3-4.7-5.1-8.1-4.2c-0.2,0-0.4,0.1-0.6,0.2
			c-3.4,1.3-5.1,5.2-3.8,8.6l0,0L84,128.4c0.8,2.1-0.2,4.4-2.2,5.2c-1.1,0.4-2.4,0.4-3.5-0.3l-17.4-9.9c-3.5-2.3-8.2-1.4-10.5,2.1
			c-2.3,3.5-1.4,8.2,2.1,10.5C69.8,145.8,86,157.3,101,170.2z"/>
		<circle class="st0" cx="57.5" cy="162.3" r="7.6"/>
		<path class="st0" d="M102.8,182H12c-6.6,0-12-5.4-12-12V12C0,5.4,5.4,0,12,0h91c6.6,0,12,5.4,12,12v63.6h-8V11.9c0-2.2-1.8-4-4-4
			H12c-2.2,0-4,1.8-4,4V170c0,2.2,1.8,4,4,4h90.9c0.6,0,1.2-0.1,1.7-0.4l3.3,7.3C106.3,181.6,104.6,182,102.8,182z"/>
		<rect x="3.9" y="147.5" class="st0" width="61.2" height="4"/>
		<rect x="3.9" y="19.2" class="st0" width="107.2" height="4"/>
	</g>
</g>
</svg>
