<?xml version="1.0" encoding="utf-8"?>
<!-- Generator: Adobe Illustrator 25.2.1, SVG Export Plug-In . SVG Version: 6.00 Build 0)  -->
<svg version="1.1" id="Layer_1" xmlns="http://www.w3.org/2000/svg" xmlns:xlink="http://www.w3.org/1999/xlink" x="0px" y="0px"
	 viewBox="0 0 114.4 87.4" style="enable-background:new 0 0 114.4 87.4;" xml:space="preserve">
<style type="text/css">
	.st0{fill:#FFFFFF;}
	.st1{fill:none;}
</style>
<path class="st0" d="M21.9,7.8L8.2,0l13.7,2V7.8z M13.3,1.7L21,6.1V2.8L13.3,1.7z"/>
<path class="st0" d="M56.9,61.4L46.4,44.7h20.9L56.9,61.4z M48.2,45.7l8.6,13.8l8.6-13.8H48.2z"/>
<path class="st0" d="M56.3,61.6l-14.4-2.1L46,45.3l0.6,0.7L56.3,61.6z M43.2,58.7l11.2,1.6l-8-12.8L43.2,58.7z"/>
<path class="st0" d="M57.4,61.6L67.2,46l0.6-0.6l0.2,0.8l3.8,13.4L57.4,61.6z M67.3,47.5l-8,12.8l11.2-1.6L67.3,47.5z"/>
<path class="st0" d="M57.1,68v-5.9l13.7-2L57.1,68z M58.1,63v3.3l7.7-4.4L58.1,63z"/>
<path class="st0" d="M56.6,68l-13.7-7.8l13.7,2V68z M47.9,61.9l7.7,4.4V63L47.9,61.9z"/>
<path class="st0" d="M67.1,44.2H46.6l10.3-10.3L67.1,44.2z M49,43.2h15.8l-7.9-7.9L49,43.2z"/>
<path class="st0" d="M67.8,44.1l-9.6-9.6l13.5,6.7L67.8,44.1z M63.2,38.1l4.7,4.7l1.9-1.4L63.2,38.1z"/>
<polygon class="st0" points="69,45.1 68.4,44.3 71.9,41.7 71.9,42.9 "/>
<path class="st0" d="M71.9,57.9l-3.7-13.1v-0.2l3.7-2.8V57.9z M69.2,44.9l1.7,5.8v-7.1L69.2,44.9z"/>
<path class="st0" d="M41.8,57.9V41.7l3.7,2.8v0.4L41.8,57.9z M42.8,43.7v7.1l1.7-5.8L42.8,43.7z"/>
<polygon class="st0" points="35.8,31 40.8,34.6 34.5,32.7 34.8,31 33.8,31 33.4,33.4 46.5,37.3 37.5,31 "/>
<path class="st0" d="M92.3,69.4H22.1c-0.1,0-0.2-0.1-0.2-0.2S22,69,22.1,69h70.2c0.1,0,0.2,0.1,0.2,0.2
	C92.5,69.3,92.4,69.4,92.3,69.4z"/>
<path class="st0" d="M93.9,71.2H20.6c-0.3,0-0.5-0.2-0.5-0.4c0,0,0,0,0-0.1v-1.8l2.7-6.3c0.1-0.2,0.3-0.3,0.5-0.3h21.6
	c0.3,0,0.5,0.2,0.5,0.4c0,0,0,0,0,0.1c0,0.3-0.3,0.6-0.6,0.6H23.6l-2.5,5.9v1h72.3v-1l-2.5-5.9H72.4c-0.3,0-0.5-0.2-0.5-0.5
	s0.2-0.5,0.5-0.5h18.8c0.2,0,0.4,0.1,0.5,0.3l2.7,6.3v1.8C94.4,71,94.1,71.2,93.9,71.2z"/>
<path class="st0" d="M113.4,78.3c-0.9-2.2-1.6-4.4-2-6.7c0-0.3-0.3-0.4-0.5-0.4c-0.3,0-0.5,0.2-0.5,0.4c0,0,0,0,0,0.1
	s-0.4,5.6-0.4,9.1c0,3-4,3-4.2,3H8.6c-0.2,0-4.2-0.1-4.2-3c0-3.5-0.4-9-0.4-9.1c0-0.3-0.2-0.5-0.4-0.5c0,0,0,0-0.1,0
	c-0.2,0-0.5,0.2-0.5,0.4c-0.3,2.3-1,4.6-2,6.7c-0.5,1.1-0.9,2.3-1,3.5c0,2.1,1,5.6,7.6,5.6h99.2c6.6,0,7.6-3.5,7.6-5.6
	C114.3,80.6,114,79.4,113.4,78.3z"/>
<polygon class="st0" points="51.1,28 52.2,24.5 62.8,27.8 62.4,28 64.6,28 65.4,27.6 51.5,23.3 50.1,28 "/>
<polygon class="st0" points="56.7,31 48.9,35.1 50.2,31 49.1,31 47.2,37.2 58.9,31 "/>
<polygon class="st0" points="37.9,18.3 36.7,20.3 40.7,20.3 40.1,18.3 "/>
<path class="st1" d="M108.3,30.9c-0.4-0.2-0.8-0.4-1.3-0.4H7.4c-0.5,0-1,0.1-1.4,0.4l-0.5,0.5c-0.4,0.5-0.6,1.1-0.6,1.7v47.6
	c0,1.4,1.1,2.5,2.5,2.5l0,0H107c1.4,0,2.5-1.1,2.5-2.5l0,0V33c0-0.6-0.2-1.2-0.6-1.6L108.3,30.9z"/>
<polygon class="st0" points="34.4,20.3 35.6,18.3 33.8,18.3 33.2,20.3 "/>
<polygon class="st0" points="26.9,18.7 26.3,18.3 25.1,18.3 26.1,19.3 "/>
<path class="st0" d="M110.5,30.1L110.5,30.1l-0.2-0.2c-0.2-0.2-0.5-0.4-0.7-0.6l-11.3-9.5c-0.9-0.9-2.1-1.4-3.3-1.4H42.2l0.6,2h52.1
	c0.7,0,1.4,0.3,1.9,0.8l0.1,0.1l8.6,7.2H8.9l8.7-7.3l0.1-0.1c0.5-0.5,1.2-0.8,1.9-0.8h4.7l-2-2h-2.7c-1.2,0-2.4,0.5-3.3,1.4
	L4.9,29.3c-0.2,0.1-0.4,0.2-0.5,0.4l-0.2,0.2L4.1,30c-0.8,0.8-1.2,1.9-1.2,3.1v47.6c0,2.5,2,4.5,4.5,4.5l0,0H107
	c2.5,0,4.5-2,4.5-4.5l0,0V33C111.6,31.9,111.2,30.9,110.5,30.1z M109.6,80.6c0,1.4-1.1,2.5-2.5,2.5l0,0H7.4c-1.4,0-2.5-1.1-2.5-2.5
	l0,0V33c0-0.6,0.2-1.2,0.6-1.7L6,30.9c0.4-0.3,0.9-0.4,1.4-0.4H107c0.5,0,0.9,0.1,1.3,0.4l0.7,0.6c0.4,0.4,0.6,1,0.6,1.6V80.6z"/>
<polygon class="st0" points="31.3,18.3 30.7,18.3 28,20.3 31.3,20.3 "/>
<polygon class="st0" points="41.4,28 33.6,24.7 39.5,14.7 43.6,28 44.7,28 40.1,13.3 39.7,12.4 32.1,25.2 38.8,28 "/>
<path class="st0" d="M31.8,23.6V7.4l3.7,2.8v0.4L31.8,23.6z M32.8,9.4v7l1.7-5.8L32.8,9.4z"/>
<path class="st0" d="M25.9,21.3l-9.6-9.6l13.5,6.7L25.9,21.3z M21.4,15.3l4.7,4.7l1.9-1.4L21.4,15.3z"/>
</svg>
