<?xml version="1.0" encoding="utf-8"?>
<!-- Generator: Adobe Illustrator 25.2.1, SVG Export Plug-In . SVG Version: 6.00 Build 0)  -->
<svg version="1.1" id="Layer_1" xmlns="http://www.w3.org/2000/svg" xmlns:xlink="http://www.w3.org/1999/xlink" x="0px" y="0px"
	 viewBox="0 0 56 54" style="enable-background:new 0 0 56 54;" xml:space="preserve">
<style type="text/css">
	.st0{fill:#FFFFFF;}
</style>
<g id="Layer_2_1_">
	<g id="Layer_1-2">
		<path class="st0" d="M7,14c-3.9,0-7-3.1-7-7s3.1-7,7-7s7,3.1,7,7S10.9,14,7,14z M13.1,13.6c0.4-0.3,0.7-0.7,1-1.1l10.7,10.7
			c0.3,0.3,0.3,0.8,0,1.1c0,0,0,0,0,0c0,0-0.1,0.1-0.1,0.1c-0.3,0.2-0.7,0.2-1-0.1L13.1,13.6z M8,48c-3.9,0-7-3.1-7-7s3.1-7,7-7
			s7,3.1,7,7l0,0C15,44.9,11.9,48,8,48z M16,36.8c-0.3-0.5-0.5-0.9-0.9-1.3l4.9-3.3c0.2,0.5,0.5,0.9,0.9,1.3L16,36.8z M29.1,34.1
			l0.5,0.7c-3.8,0.9-7.5-1.4-8.4-5.2c-0.4-1.5-0.2-3.1,0.4-4.6l0.6,0.6c1.1,1,2.9,0.9,3.9-0.2c0.9-1,0.9-2.6,0-3.7l-0.4-0.4
			c3.6-1.2,7.6,0.7,8.9,4.3c0.2,0.7,0.4,1.5,0.4,2.3c0,1.2-0.3,2.4-0.9,3.4L33.8,31c-0.9-1.3-2.6-1.7-3.9-0.8
			C28.6,31,28.3,32.8,29.1,34.1L29.1,34.1L29.1,34.1z M40,40c3.9,0,7,3.1,7,7s-3.1,7-7,7s-7-3.1-7-7S36.1,40,40,40L40,40z
			 M36.6,38.7c-0.5,0.2-1,0.5-1.4,0.8L30.8,33c-0.3-0.4-0.2-0.9,0.2-1.2c0,0,0,0,0,0c0.4-0.2,0.9-0.1,1.1,0.2c0,0,0,0,0,0L36.6,38.7
			z M36.4,24.8c-0.1-0.4-0.3-0.7-0.5-1.1l4.4-1.5c0.1,0.4,0.2,0.7,0.4,1.1L36.4,24.8z M49,27c-3.9,0-7-3.1-7-7s3.1-7,7-7s7,3.1,7,7
			S52.9,27,49,27z"/>
	</g>
</g>
</svg>
