<?xml version="1.0" encoding="utf-8"?>
<!-- Generator: Adobe Illustrator 25.2.1, SVG Export Plug-In . SVG Version: 6.00 Build 0)  -->
<svg version="1.1" id="Layer_1" xmlns="http://www.w3.org/2000/svg" xmlns:xlink="http://www.w3.org/1999/xlink" x="0px" y="0px"
	 viewBox="0 0 48 48" style="enable-background:new 0 0 48 48;" xml:space="preserve">
<style type="text/css">
	.st0{fill:#FFFFFF;}
</style>
<g id="Layer_2_1_">
	<g id="Layer_1-2">
		<path class="st0" d="M47,48H1c-0.6,0-1-0.5-1-1c0-0.2,0-0.3,0.1-0.4l23-46c0.3-0.5,0.9-0.7,1.3-0.4c0.2,0.1,0.3,0.2,0.4,0.4l23,46
			c0.2,0.5,0.1,1.1-0.4,1.3C47.3,48,47.2,48,47,48z M2.6,46h42.8L24,3.2L2.6,46z"/>
		<path class="st0" d="M24,46c-0.6,0-1-0.4-1-1v-2c0-0.6,0.4-1,1-1s1,0.4,1,1v2C25,45.6,24.6,46,24,46z M24,40c-0.6,0-1-0.4-1-1v-2
			c0-0.6,0.4-1,1-1s1,0.4,1,1v2C25,39.6,24.6,40,24,40z M24,34c-0.6,0-1-0.4-1-1v-2c0-0.6,0.4-1,1-1s1,0.4,1,1v2
			C25,33.6,24.6,34,24,34z M24,28c-0.6,0-1-0.4-1-1v-2c0-0.6,0.4-1,1-1s1,0.4,1,1v2C25,27.6,24.6,28,24,28z M24,22c-0.6,0-1-0.4-1-1
			v-2c0-0.6,0.4-1,1-1s1,0.4,1,1v2C25,21.6,24.6,22,24,22z M24,16c-0.6,0-1-0.4-1-1v-2c0-0.6,0.4-1,1-1s1,0.4,1,1v2
			C25,15.6,24.6,16,24,16z M24,10c-0.6,0-1-0.4-1-1V7c0-0.6,0.4-1,1-1s1,0.4,1,1v2C25,9.6,24.6,10,24,10z M24,4c-0.6,0-1-0.4-1-1V1
			c0-0.6,0.4-1,1-1s1,0.4,1,1v2C25,3.6,24.6,4,24,4z"/>
	</g>
</g>
</svg>
