<?xml version="1.0" encoding="utf-8"?>
<!-- Generator: Adobe Illustrator 25.2.1, SVG Export Plug-In . SVG Version: 6.00 Build 0)  -->
<svg version="1.1" id="Layer_1" xmlns="http://www.w3.org/2000/svg" xmlns:xlink="http://www.w3.org/1999/xlink" x="0px" y="0px"
	 viewBox="0 0 90 71" style="enable-background:new 0 0 90 71;" xml:space="preserve">
<style type="text/css">
	.st0{fill:#FFFFFF;}
</style>
<g id="Layer_2_1_">
	<g id="Layer_1-2">
		<path class="st0" d="M57.2,32.7l-0.5-0.1L56,32.5l-0.8-0.2L54.3,32l-0.7-0.4L53.2,31L53,30.3v-3.1l0.2-0.7l0.4-0.6l0.7-0.4
			l0.9-0.3l0.8-0.2l0.7-0.1l0.4-0.1l0.3-0.1l0.1-0.2v-0.4v-0.6l-0.1-0.7l-0.2-0.8l-0.2-0.9l-0.2-0.9l-0.3-0.8l-0.2-0.7L56,18.3
			L55.8,18l-0.2-0.1h-0.3L54.9,18l-0.6,0.2l-0.8,0.3l-0.9,0.2h-0.8l-0.7-0.3l-0.5-0.5l-0.4-0.6l-0.4-0.6l-0.4-0.7L49,15.3l-0.2-0.7
			l0.1-0.7l0.4-0.7l0.6-0.7l0.6-0.6l0.5-0.4l0.3-0.3l0.2-0.2v-0.2l-0.2-0.3L51,10l-0.5-0.6L50,8.8l-0.6-0.7l-0.7-0.6l-0.6-0.6
			l-0.5-0.5l-0.4-0.3L46.8,6h-0.2l-0.2,0.2L46,6.5L45.6,7l-0.5,0.6l-0.7,0.6l-0.7,0.4l-0.7,0l-0.7-0.2l-0.7-0.3l-0.7-0.4l-0.7-0.4
			l-0.6-0.4L39,6.4l-0.3-0.7V4.9l0.2-0.9l0.3-0.8l0.2-0.6l0.2-0.4V1.9l-0.1-0.2l-0.3-0.2l-0.5-0.2L38,1.1l-0.8-0.3l-0.9-0.3
			l-0.9-0.2l-0.8-0.2l-0.7-0.1L33.3,0H33l-0.2,0.1l-0.1,0.3l-0.1,0.4l-0.1,0.7l-0.2,0.8L32,3.2l-0.4,0.7L31,4.3l-0.7,0.2h-3.1
			l-0.7-0.2l-0.6-0.4l-0.4-0.7l-0.3-0.9L25,1.5l-0.1-0.7l-0.1-0.4l-0.1-0.3L24.5,0h-0.4l-0.5,0.1l-0.7,0.1l-0.8,0.2l-0.9,0.2
			l-0.9,0.2l-0.8,0.3l-0.7,0.2l-0.5,0.2L18,1.7l-0.1,0.2v0.3L18,2.6l0.2,0.6l0.3,0.8l0.2,0.9v0.8l-0.3,0.7l-0.5,0.5l-0.6,0.4
			l-0.7,0.4l-0.7,0.4l-0.7,0.3l-0.7,0.2l-0.6-0.1l-0.7-0.4l-0.7-0.6L11.9,7l-0.4-0.5l-0.3-0.3L11,6h-0.2l-0.3,0.2L10,6.5L9.4,6.9
			L8.8,7.5L8.2,8.2L7.5,8.8L6.9,9.4L6.5,10l-0.3,0.4L6,10.7V11l0.2,0.2l0.3,0.3L7,11.9l0.6,0.6l0.6,0.7l0.4,0.7l0.1,0.7l-0.2,0.7
			L8.1,16l-0.4,0.7l-0.4,0.7L6.9,18l-0.5,0.5l-0.7,0.3H4.9L4,18.6l-0.8-0.3l-0.6-0.2L2.2,18H1.9l-0.2,0.1l-0.2,0.3l-0.2,0.5
			l-0.2,0.7l-0.3,0.8l-0.2,0.9l-0.2,0.9L0.2,23L0,23.7v0.5v0.4l0.1,0.2l0.3,0.1L0.8,25l0.7,0.1l0.8,0.2l0.9,0.3L3.9,26l0.4,0.6
			l0.2,0.7v3.2l-0.2,0.7l-0.4,0.5L3.1,32l-0.9,0.3l-0.8,0.2l-0.7,0.2l-0.4,0.1l-0.3,0.1L0,33v0.3l0.1,0.5l0.1,0.7l0.2,0.8l0.2,0.9
			l0.2,0.9L1.1,38l0.2,0.7l0.2,0.5l0.2,0.3l0.2,0.1h0.3l0.4-0.2l0.6-0.2L4,38.9l0.9-0.2h0.8l0.7,0.3l0.5,0.5l0.4,0.6l0.4,0.7
			l0.4,0.7l0.3,0.7L8.6,43l-0.1,0.7l-0.4,0.7l-0.6,0.7L7,45.6L6.5,46l-0.3,0.3L6,46.6v0.2l0.2,0.3l0.3,0.4L7,48.1l0.6,0.6l0.6,0.7
			L8.8,50l0.6,0.6l0.6,0.5l0.4,0.3l0.3,0.2H11l0.2-0.2l0.3-0.3l0.4-0.5l0.6-0.6l0.7-0.6l0.7-0.4l0.7-0.1l0.7,0.2l0.7,0.3l0.7,0.4
			l0.7,0.4l0.6,0.4l0.5,0.5l0.3,0.7v0.8l-0.2,0.9l-0.3,0.8l-0.2,0.6L18,55.3v0.3l0.1,0.2l0.3,0.2l0.5,0.2l0.7,0.2l0.8,0.3l0.9,0.2
			l0.9,0.2l0.8,0.2l0.7,0.1l0.5,0.1h0.4l0.2-0.1l0.1-0.3l0.1-0.4l0.1-0.7l0.2-0.8l0.3-0.9l0.4-0.7l0.6-0.4l0.7-0.2h3.1l0.7,0.2
			l0.6,0.4l0.4,0.7l0.3,0.9l0.2,0.8l0.1,0.7l0.1,0.4l0.1,0.3l0.2,0.1h0.3l0.5-0.1l0.7-0.1l0.8-0.2l0.9-0.2l0.9-0.2l0.8-0.3l0.7-0.2
			l0.5-0.2l0.3-0.2l0.1-0.2v-0.3l-0.2-0.4l-0.2-0.6L39,53.5l-0.3-0.9v-0.8l0.3-0.7l0.5-0.5l0.6-0.4l0.7-0.4l0.7-0.4l0.7-0.3l0.7-0.2
			l0.7,0.1l0.7,0.4l0.7,0.6l0.5,0.6l0.4,0.5l0.3,0.3l0.2,0.2h0.2l0.3-0.2l0.4-0.3l0.5-0.5l0.6-0.6l0.7-0.6l0.6-0.7l0.6-0.6l0.5-0.5
			l0.3-0.4l0.2-0.3v-0.2l-0.2-0.2L51,46l-0.5-0.5L49.9,45l-0.6-0.7l-0.4-0.7l-0.1-0.7l0.2-0.7l0.3-0.7l0.4-0.7l0.4-0.7l0.4-0.6
			l0.5-0.5l0.7-0.3h0.8l0.9,0.2l0.8,0.3l0.6,0.2l0.4,0.2h0.3l0.2-0.1l0.2-0.3l0.2-0.5l0.2-0.7l0.3-0.8l0.2-0.9l0.2-0.9l0.2-0.8
			l0.1-0.7l0.1-0.5v-0.3l-0.1-0.2L57.2,32.7z M28.8,40.4c-6.4,0-11.7-5.2-11.7-11.7s5.2-11.7,11.7-11.7s11.7,5.2,11.7,11.7
			c0,0,0,0,0,0l0,0C40.4,35.2,35.2,40.4,28.8,40.4z M89.4,33.7l-0.6-0.5l-0.6-0.5l-0.5-0.3l-0.3-0.2l-0.2-0.2l-0.1-0.2v-6.2l0.1-0.2
			l0.2-0.2l0.3-0.2l0.5-0.4l0.6-0.5l0.6-0.5l0.4-0.5l0.2-0.6v-0.6l-0.2-0.6l-0.3-0.6l-0.3-0.6l-0.3-0.5l-0.4-0.4l-0.5-0.2h-0.7
			l-0.8,0.1l-0.7,0.2l-0.6,0.2l-0.4,0.1h-0.2l-0.2-0.1L84,19.5l-0.4-0.4l-0.5-0.5l-0.6-0.5l-0.6-0.5l-0.6-0.5l-0.6-0.4l-0.6-0.4
			l-0.4-0.3l-0.2-0.2l-0.1-0.2v-0.6l0.1-0.6v-1.5l-0.2-0.7l-0.3-0.5l-0.5-0.3l-0.6-0.2L77.1,11l-0.7-0.1l-0.6-0.1l-0.6,0.1l-0.5,0.3
			l-0.4,0.5l-0.4,0.7l-0.3,0.7l-0.2,0.6L73.3,14l-0.1,0.2L73,14.4l-0.3,0.1l-0.5,0.1l-0.7,0.1l-0.8,0.1l-0.8,0.1l-0.8,0.2l-0.7,0.2
			l-0.7,0.2l-0.5,0.1l-0.3,0.1h-0.2l-0.2-0.1l-0.3-0.3l-0.5-0.4l-0.6-0.5l-0.6-0.4L64,13.6h-0.6l-0.6,0.2l-0.5,0.3l-0.5,0.4L61.2,15
			l-0.4,0.5l-0.3,0.5l-0.1,0.6l0.1,0.7l0.3,0.7l0.4,0.7l0.3,0.5l0.2,0.3l0.1,0.2v0.2l-0.1,0.3l-0.2,0.5l-0.3,0.6l-0.4,0.7l-0.4,0.7
			l-0.3,0.7L59.8,24l-0.3,0.6l-0.2,0.5l-0.2,0.3L59,25.6l-0.2,0.1h-0.4l-0.6,0.1L57,25.9l-0.7,0.2l-0.6,0.3l-0.4,0.4L55,27.4l0,0.6
			v1.4V30l0.2,0.5l0.4,0.4l0.6,0.3l0.7,0.2l0.8,0.1l0.6,0.1h0.4l0.2,0.1l0.2,0.1l0.2,0.3l0.2,0.5l0.3,0.6L60,34l0.3,0.7l0.4,0.7
			l0.4,0.7l0.3,0.6l0.2,0.5l0.1,0.3v0.2l-0.1,0.2l-0.2,0.3l-0.3,0.5l-0.4,0.7l-0.3,0.7l-0.1,0.7l0.1,0.6l0.3,0.5l0.4,0.5l0.5,0.4
			l0.5,0.4l0.5,0.3l0.6,0.2H64l0.6-0.3l0.6-0.4l0.6-0.5l0.5-0.5l0.3-0.3l0.2-0.1H67l0.3,0l0.5,0.1l0.7,0.2l0.7,0.2l0.8,0.2l0.8,0.2
			l0.8,0.1l0.7,0.1l0.5,0.1l0.3,0.1l0.2,0.1l0.1,0.2l0.1,0.4l0.2,0.6l0.3,0.7l0.4,0.7l0.4,0.5l0.5,0.3l0.6,0.1l0.6-0.1l0.7-0.1
			l0.7-0.2l0.6-0.2l0.5-0.3l0.3-0.5l0.2-0.7v-1.5l-0.1-0.6v-0.6l0.1-0.2l0.2-0.2l0.4-0.3l0.6-0.4l0.6-0.4l0.6-0.5l0.6-0.5l0.6-0.5
			l0.5-0.5L84,38l0.3-0.2l0.2-0.1h0.2l0.4,0.1l0.6,0.2l0.7,0.2l0.8,0.1h0.7l0.5-0.2l0.4-0.4l0.3-0.5l0.3-0.6l0.3-0.6l0.2-0.6v-0.6
			l-0.2-0.6L89.4,33.7z M73.2,36.8c-4.2,0-7.6-3.4-7.6-7.6s3.4-7.6,7.6-7.6c4.2,0,7.6,3.4,7.6,7.6l0,0l0,0
			C80.8,33.4,77.4,36.8,73.2,36.8z M80,55l-0.2-0.8l-0.2-0.8l-0.3-0.8l-0.3-0.8l-0.3-0.6l-0.3-0.4l-0.3-0.2h-0.3l-0.3,0.1l-0.3,0.2
			L76.8,51l-0.3,0.1l-0.4,0.1l-0.4-0.1l-0.4-0.3l-0.5-0.4L74.3,50l-0.5-0.5L73.3,49l-0.5-0.5l-0.4-0.4L72,47.7l-0.1-0.4v-0.4
			l0.1-0.3l0.2-0.3l0.2-0.3l0.1-0.3v-0.3L72.2,45l-0.4-0.3l-0.6-0.3l-0.8-0.3l-0.8-0.2l-0.8-0.2l-0.8-0.1h-1.2l-0.3,0.2l-0.2,0.3
			l-0.1,0.3v1.1L66,45.9l-0.3,0.3l-0.5,0.2l-0.6,0.2L64,46.8l-0.7,0.2l-0.7,0.2L62,47.4l-0.6,0.2l-0.5,0.1l-0.4-0.1l-0.3-0.2
			L59.9,47l-0.2-0.3l-0.2-0.3l-0.2-0.2L58.9,46h-0.4l-0.5,0.2l-0.6,0.4l-0.6,0.5l-0.6,0.6l-0.6,0.7l-0.5,0.6l-0.4,0.6l-0.2,0.5v0.4
			l0.2,0.3l0.3,0.2l0.3,0.2l0.3,0.2l0.3,0.2l0.2,0.3l0.1,0.4v0.5l-0.1,0.6L56,54.1l-0.2,0.7l-0.1,0.7l-0.1,0.7l-0.2,0.6l-0.2,0.5
			l-0.3,0.3l-0.3,0.2l-0.4,0.1h-0.7l-0.3,0.1L52.9,58l-0.2,0.3v0.5l0.1,0.7l0.2,0.8l0.2,0.8l0.3,0.8l0.3,0.8l0.3,0.6l0.3,0.4
			l0.3,0.2H55l0.3-0.1l0.3-0.2l0.3-0.2l0.3-0.1l0.4-0.1l0.4,0.1l0.4,0.3l0.5,0.4l0.5,0.5l0.5,0.5l0.5,0.5L60,66l0.5,0.4l0.3,0.4
			l0.1,0.4v0.4L60.7,68l-0.2,0.3l-0.2,0.3L60.3,69v0.3l0.2,0.3L61,70l0.6,0.3l0.8,0.3l0.8,0.2l0.9,0.2l0.8,0.1h0.7l0.5-0.1l0.3-0.2
			l0.2-0.3l0.1-0.3v-1l0.1-0.4l0.2-0.3l0.5-0.2l0.6-0.2l0.7-0.2l0.7-0.2l0.7-0.2l0.7-0.2l0.6-0.2l0.5-0.1l0.4,0.1l0.3,0.2l0.2,0.3
			l0.2,0.3l0.2,0.3l0.2,0.2l0.3,0.1h0.4l0.5-0.2l0.6-0.4l0.6-0.5l0.6-0.6l0.6-0.7l0.5-0.6l0.4-0.6l0.1-0.5v-0.4l-0.2-0.3l-0.3-0.2
			l-0.3-0.2L77,63.3l-0.3-0.2l-0.2-0.3l-0.1-0.4v-0.5l0.1-0.6l0.2-0.7l0.2-0.7l0.1-0.7l0.1-0.7l0.2-0.6l0.2-0.5l0.3-0.3l0.3-0.2
			l0.4-0.1h0.7l0.3-0.1l0.3-0.2l0.2-0.3v-0.5L80,55z M66.3,64.6c-4,0-7.2-3.2-7.2-7.2s3.2-7.2,7.2-7.2c4,0,7.2,3.2,7.2,7.2v0l0,0
			C73.5,61.4,70.3,64.6,66.3,64.6z"/>
	</g>
</g>
</svg>
