<?xml version="1.0" encoding="utf-8"?>
<!-- Generator: Adobe Illustrator 25.2.1, SVG Export Plug-In . SVG Version: 6.00 Build 0)  -->
<svg version="1.1" id="Layer_1" xmlns="http://www.w3.org/2000/svg" xmlns:xlink="http://www.w3.org/1999/xlink" x="0px" y="0px"
	 viewBox="0 0 84.3 90" style="enable-background:new 0 0 84.3 90;" xml:space="preserve">
<style type="text/css">
	.st0{fill:#FFFFFF;}
</style>
<g id="Layer_2_1_">
	<g id="Layer_1-2">
		<path class="st0" d="M82.8,65.4h-3V6.2h3c0.8,0,1.4-0.6,1.4-1.3c0,0,0,0,0-0.1c0-0.8-0.6-1.4-1.3-1.4c0,0,0,0-0.1,0H43.5v-2
			c0-0.8-0.6-1.4-1.4-1.4s-1.4,0.6-1.4,1.4c0,0,0,0,0,0v1.8H1.4C0.6,3.2,0,3.8,0,4.5c0,0,0,0,0,0.1C0,5.4,0.6,6,1.3,6c0,0,0,0,0.1,0
			h3v59.2h-3c-0.8,0-1.4,0.6-1.4,1.4S0.6,68,1.4,68h28.9L11,87.5c-0.6,0.5-0.6,1.3-0.1,1.9c0,0,0.1,0.1,0.1,0.1
			c0.3,0.3,0.6,0.4,1,0.4c0.4,0,0.7-0.1,1-0.4l21.3-21.3h6.3v16.2c0,0.8,0.6,1.4,1.4,1.4s1.4-0.6,1.4-1.4c0,0,0,0,0,0V68.3h6.3
			L71,89.6c0.3,0.3,0.6,0.4,1,0.4c0.4,0,0.7-0.1,1-0.4c0.6-0.5,0.6-1.3,0.1-1.9c0,0-0.1-0.1-0.1-0.1L54,68.3h28.9
			c0.8,0,1.4-0.6,1.4-1.3c0,0,0,0,0-0.1C84.3,66.1,83.7,65.4,82.8,65.4C82.8,65.4,82.8,65.4,82.8,65.4z M77,65.4H7.2V6.2H77V65.4z"
			/>
		<path class="st0" d="M61.1,54.4h-7c-0.8,0-1.4-0.6-1.4-1.3c0,0,0,0,0-0.1V21.2c0-0.8,0.6-1.4,1.3-1.4c0,0,0,0,0.1,0h7
			c0.8,0,1.4,0.6,1.4,1.3c0,0,0,0,0,0.1V53C62.5,53.8,61.9,54.4,61.1,54.4C61.1,54.4,61.1,54.4,61.1,54.4z M55.6,51.5h4.1V22.6h-4.1
			V51.5z"/>
		<path class="st0" d="M45.6,54.4h-7c-0.8,0-1.4-0.6-1.4-1.3c0,0,0,0,0-0.1V29.2c0-0.8,0.6-1.4,1.3-1.4c0,0,0,0,0.1,0h7
			c0.8,0,1.4,0.6,1.4,1.3c0,0,0,0,0,0.1V53C47,53.8,46.4,54.4,45.6,54.4C45.6,54.4,45.6,54.4,45.6,54.4z M40.1,51.5h4V30.7h-4V51.5z
			"/>
		<path class="st0" d="M30.1,54.4h-7c-0.8,0-1.4-0.6-1.4-1.3c0,0,0,0,0-0.1V37.1c0-0.8,0.6-1.4,1.3-1.4c0,0,0,0,0.1,0h7
			c0.8,0,1.4,0.6,1.4,1.3c0,0,0,0,0,0.1V53C31.5,53.8,30.9,54.4,30.1,54.4C30.1,54.4,30.1,54.4,30.1,54.4z M24.5,51.5h4.1v-13h-4.1
			V51.5z"/>
	</g>
</g>
</svg>
