<?xml version="1.0" encoding="utf-8"?>
<!-- Generator: Adobe Illustrator 25.2.1, SVG Export Plug-In . SVG Version: 6.00 Build 0)  -->
<svg version="1.1" id="Layer_1" xmlns="http://www.w3.org/2000/svg" xmlns:xlink="http://www.w3.org/1999/xlink" x="0px" y="0px"
	 viewBox="0 0 85.6 95.6" style="enable-background:new 0 0 85.6 95.6;" xml:space="preserve">
<style type="text/css">
	.st0{fill:#FFFFFF;}
</style>
<g id="Layer_2_1_">
	<g id="Layer_1-2">
		<rect y="89.9" class="st0" width="84" height="5.7"/>
		<polygon class="st0" points="39.7,67.4 37.4,71.3 39.7,75.3 44.3,75.3 46.6,71.3 44.3,67.4 		"/>
		<path class="st0" d="M42,62.6c-4.9,0-8.8,3.9-8.8,8.8c0,4.9,3.9,8.8,8.8,8.8s8.8-3.9,8.8-8.8C50.8,66.5,46.9,62.6,42,62.6z
			 M44.9,76.3h-5.8l-2.9-5l2.9-5h5.8l2.9,5L44.9,76.3z"/>
		<path class="st0" d="M16.4,22.8c-4.3,0-7.7,3.4-7.7,7.7s3.4,7.7,7.7,7.7s7.7-3.4,7.7-7.7l0,0C24.1,26.2,20.7,22.8,16.4,22.8z
			 M19.6,35.1L14,35.6L10.8,31l2.4-5.1l5.6-0.5L22,30L19.6,35.1z"/>
		<polygon class="st0" points="18.3,26.5 13.9,26.9 12,30.9 14.6,34.5 19,34.1 20.8,30.1 		"/>
		<path class="st0" d="M23.8,35.1c-1.6,2.5-4.3,4.1-7.3,4.1c-0.7,0-1.3-0.1-2-0.2l17.8,32.8v-0.4c0-5.4,4.4-9.8,9.8-9.8
			c1.4,0,2.8,0.3,4,0.9L23.8,35.1z"/>
		<path class="st0" d="M48.6,11.7c-2.2-1.1-3.7-3.2-3.8-5.7L17,21.8c4.5,0.3,8.1,4.1,8.1,8.6c0,0.6-0.1,1.2-0.2,1.8L48.6,11.7z"/>
		<polygon class="st0" points="49.5,3.5 48.6,6.3 50.6,8.5 53.5,7.9 54.4,5.1 52.4,2.8 		"/>
		<path class="st0" d="M51.5,0c-3.1,0-5.7,2.6-5.7,5.7c0,0,0,0,0,0c0,3.1,2.6,5.7,5.7,5.7c3.1,0,5.7-2.6,5.7-5.7
			C57.2,2.6,54.6,0,51.5,0z M54,8.5l-3.8,0.8l-2.6-2.9l1.3-3.6L52.7,2l2.6,2.9L54,8.5z"/>
		<path class="st0" d="M76.1,20.5c-1.8-1.3-4.3-1-5.6,0.8c-1.5,1.6-1.3,4.1,0.3,5.6c0,0,0,0,0,0L76.1,20.5z"/>
		<polygon class="st0" points="77.6,20.5 82.9,23.6 85.6,27.4 84.2,29.8 83.5,30.3 82.9,29.9 83,29 83.6,27.8 81.8,25.4 79.2,23.8 
			74.7,29.2 76.7,31.5 79.4,32.8 80.6,31.9 81.4,31.7 81.9,32.2 81.6,33 79.4,34.8 75.2,32.9 71.2,28.3 		"/>
		<path class="st0" d="M69.8,20.6c0.5-0.6,1.2-1.1,1.9-1.5L58.2,5.7c0,3-2.1,5.6-5,6.4l15.5,10.7C68.9,22,69.3,21.3,69.8,20.6z"/>
		<path class="st0" d="M62.5,88.9c-1.3-6.3-5.4-11.7-11.2-14.6c-1.7,5.1-7.3,7.9-12.4,6.2c-2.9-1-5.2-3.3-6.2-6.2
			c-5.8,2.9-9.9,8.3-11.2,14.6H62.5z"/>
	</g>
</g>
</svg>
