<svg xmlns="http://www.w3.org/2000/svg" viewBox="0 0 473.99 254.61"><title>Asset 1</title><g id="Layer_2" data-name="Layer 2"><g id="Layer_1-2" data-name="Layer 1"><path d="M467,202.68H450.56V162.25a7,7,0,0,0-7-7H406.9l32.43-58.63a7,7,0,0,0-4.1-10.09,98.79,98.79,0,0,0-26.36-3.35,95.16,95.16,0,0,0-38,7.6c4.95-17.31,6.17-26,2.49-31.14a9,9,0,0,0-7-3.82c-1.11,0-2.27-.07-3.45-.07-9.26,0-29,1.65-48.15,13.79C317.51,61,320.5,51.37,323,43c6.45-22.17,6.23-25.08,3.85-28.32a7.32,7.32,0,0,0-5.86-3,7.63,7.63,0,0,0-1.85.24c-6.59,1.71-27.27,8-52.82,25.05L265,6.71a7,7,0,0,0-9-6.4c-.93.28-23,7.15-49.57,23.25C182.74,37.87,151.18,62.4,132.31,99c-4.46-.7-8.57-1.2-12.31-1.57C106.44,83.77,85.13,76.85,56.58,76.85a197.32,197.32,0,0,0-41,4.4,7,7,0,0,0-3.54,11.56C40.68,123.89,61,160,69.83,177.17H69a7.36,7.36,0,0,0-1.81.23L28.62,187.73a7,7,0,0,0-5.19,6.76v8.19H7a7,7,0,0,0-7,7v37.93a7,7,0,0,0,7,7H467a7,7,0,0,0,7-7V209.68A7,7,0,0,0,467,202.68Zm-101.5-92.37a.94.94,0,0,1,0-.16l.14-.71c12.3-8.13,26.81-12.26,43.19-12.26a94.36,94.36,0,0,1,13.61,1L390.9,155.24h-19a6.93,6.93,0,0,0-3.5.94l-11.11,6.41-2.83,1.63q.74-4.23,1.58-8.72l.58-3.08c.22-1.1.43-2.22.65-3.34l.13-.63a.77.77,0,0,0,0-.15l1.89-9.43.39-1.85.1-.48,0-.15,1.27-6.1c.19-.86.37-1.72.55-2.58Zm-4.05-40.55c-.73,6.53-4.61,19.42-6.25,24.85-1.17,3.91-2.1,7-2.57,9.06h0l-.53,2.34a.3.3,0,0,0,0,.1l-.47,2.12,0,.1-.1.47c-.63,2.82-1.27,5.74-1.92,8.73l-.86,3.89s0,.07,0,.11l-1,4.72-.06.3-.2.93a.36.36,0,0,0,0,.1l-.75,3.52s0,.07,0,.11l-.73,3.52s0,.07,0,.11l-.24,1.19c0,.1,0,.2-.05.3l-.15.73c-.44,2.16-.88,4.32-1.3,6.48l-.65,3.18a.36.36,0,0,1,0,.1l-.22,1.16c0,.1,0,.19-.06.3l-1.25,6.54-.06.37-.37,2a.51.51,0,0,0,0,.13l-.36,2,0,.12-.51,3c-.19,1.11-.37,2.19-.55,3.27l-.37,2.16s0,.09,0,.14l-.29,1.81,0,.12-.19,1.23H309.78a7,7,0,0,0-1.82.24l-14.78,4c0-.06,0-.11,0-.18a2.17,2.17,0,0,1,0-.26q0-.66-.06-1.35c0-.14,0-.28,0-.43,0-.43,0-.87,0-1.32v-.46c0-.48,0-1,0-1.5,0-.12,0-.23,0-.35,0-1.31.1-2.68.19-4.14,0,0,0-.09,0-.14.05-.66.1-1.34.15-2,0-.15,0-.3,0-.45.05-.61.11-1.23.17-1.86,0-.17,0-.34,0-.51.06-.66.14-1.34.21-2,0-.13,0-.25,0-.38.19-1.68.41-3.43.66-5.24h0c.12-.87.25-1.77.39-2.67,0-.15,0-.31.07-.47q.17-1.16.36-2.34c0-.18.06-.38.09-.57.13-.8.26-1.61.4-2.44,0-.15.05-.3.07-.46.51-3,1.07-6.08,1.7-9.31,0-.18.08-.37.11-.56.18-.88.35-1.77.53-2.66l.15-.71c.18-.9.37-1.8.56-2.7,0-.22.09-.42.13-.63.23-1.08.46-2.17.7-3.27l0-.09q.77-3.49,1.6-7.13c.05-.21.11-.43.15-.64.23-1,.46-2,.7-3,.06-.27.13-.55.19-.83.23-1,.47-1.93.71-2.91.06-.27.13-.53.19-.8.28-1.14.56-2.29.86-3.44a2.1,2.1,0,0,1,.06-.24q1-3.84,2-7.82c.05-.22.11-.44.17-.66l.57-2.12C325.77,73.19,350.24,70,361.44,69.76ZM264,55.69a7.68,7.68,0,0,0,.69-.59c19.51-14.53,36.77-22.39,47.71-26.41C309,41.54,302,63.78,298.45,74.88c-2.25,7.1-3.87,12.23-4.44,14.3v0c-.6,2.22-1.22,4.58-1.86,7,0,.13-.06.26-.1.39-.19.72-.37,1.45-.56,2.19-.05.18-.1.36-.14.54l-.57,2.23c0,.15-.07.3-.11.45-.82,3.29-1.65,6.73-2.48,10.25l-.18.78-.48,2.09-.24,1.06-.45,2c-.09.4-.18.8-.26,1.21-.15.64-.29,1.29-.43,2l-.27,1.23-.42,2c-.08.37-.16.75-.23,1.13-.31,1.45-.61,2.91-.89,4.37,0,.23-.1.46-.14.69-.12.6-.24,1.21-.35,1.81s-.19,1-.28,1.46-.22,1.15-.32,1.72-.19,1-.28,1.54l-.3,1.7-.27,1.56c-.1.55-.19,1.11-.28,1.66s-.18,1.07-.26,1.59-.17,1.08-.26,1.61-.17,1.16-.26,1.74l-.21,1.42c-.15,1-.28,2-.41,3-.06.43-.11.85-.16,1.27-.08.61-.16,1.22-.23,1.83l-.15,1.35c-.07.57-.13,1.12-.19,1.68s-.09.91-.13,1.36-.11,1.09-.15,1.63-.08.88-.11,1.31l-.12,1.64c0,.41-.06.82-.08,1.22,0,.6-.06,1.19-.09,1.78,0,.33,0,.66-.05,1,0,.89-.06,1.77-.07,2.62V171c0,.62,0,1.24,0,1.84,0,.33,0,.64,0,1,0,.51,0,1,.05,1.51,0,.33,0,.65.05,1l0,.55-.18,0-.5-.49L276,173.68l-1.31-1.28q-2-1.93-4-3.81l-.14-.14q-2-1.89-4-3.7l-.75-.67c-1.27-1.13-2.52-2.23-3.78-3.32l-.41-.36a276.59,276.59,0,0,0-58.13-38.65l1-1.58c.75-1.14,1.5-2.28,2.26-3.4.5-.74,1-1.48,1.52-2.21.72-1,1.44-2.09,2.16-3.11.56-.79,1.13-1.57,1.7-2.35s1.34-1.85,2-2.76,1.28-1.7,1.92-2.55l1.8-2.35,2.26-2.85c.5-.62,1-1.24,1.49-1.85.9-1.1,1.8-2.19,2.72-3.27l1.05-1.25c1.11-1.3,2.24-2.6,3.37-3.87l.42-.48A239.56,239.56,0,0,1,264,55.69ZM251.42,16.84l1.25,29.9-.36.29c-1.26,1-2.53,2-3.81,3l-.74.6c-1,.82-2,1.65-3,2.5l-1.33,1.13c-1,.84-2,1.71-3,2.59-.61.53-1.22,1.07-1.82,1.62l-1.58,1.44c-1.12,1-2.22,2.06-3.33,3.1l-1,1q-3.61,3.48-7.13,7.12c-.17.19-.35.37-.52.55q-3.7,3.87-7.27,7.91c-.17.19-.34.37-.5.56q-3.58,4.08-7,8.35c-.28.34-.55.69-.83,1q-3.27,4.06-6.42,8.29l-1.29,1.75-1.68,2.3-1.63,2.3c-.65.92-1.29,1.83-1.92,2.76S195,109,194.31,110.1l-1.22,1.84-1.89,2.91c-.22.33-.44.66-.65,1a249.46,249.46,0,0,0-43.84-14.16C174.79,51.08,230.1,25.25,251.42,16.84ZM115.79,111.05H116c5.16.43,11.24,1.16,18,2.35a7.36,7.36,0,0,0,.92.25,237,237,0,0,1,55.36,17.48h0a262.31,262.31,0,0,1,67.07,44.29l.44.4c.49.44,1,.89,1.45,1.34H139.23l-13-28.79c0-.09-.06-.19-.1-.28L109.2,110.63C111.14,110.72,113.35,110.85,115.79,111.05Zm8.08,66.12H108.32l9.82-12.68ZM30.7,92.76a186.47,186.47,0,0,1,25.89-1.91c11.71,0,26.18,1.35,38.47,6.56l-.17.1-.45.28-.3.21c-.15.11-.28.23-.42.35l-.26.23a4.38,4.38,0,0,0-.41.45,2.09,2.09,0,0,0-.2.22,6.27,6.27,0,0,0-.5.73l0,0h0c-.09.16-.17.32-.25.48s-.1.18-.14.28a2.92,2.92,0,0,0-.14.38c0,.14-.11.27-.15.41a2.81,2.81,0,0,0-.08.31c0,.16-.09.33-.12.5s0,.19,0,.29,0,.36-.06.54a7,7,0,0,0,.61,3.28l19.67,43.58-21,27.12H85.5C79.47,164.87,59.94,127.26,30.7,92.76Zm6.73,107.11,32.5-8.7H287.68a7,7,0,0,0,.8,0h.09l.17,0c.18,0,.35-.06.52-.09l.17-.05h.08l21.21-5.71h33.49c.14,0,.27,0,.41,0s.32,0,.48,0l.44-.08c.15,0,.29-.05.43-.09l.44-.14.41-.14.44-.2c.1-.06.22-.1.32-.16l.12-.06h0l.95-.52.19-.12,15-8.67,9.92-5.72h62.76v33.43H37.43ZM460,240.61H14v-5H237a7,7,0,0,0,0-14H14v-5H460v23.93Z"/></g></g></svg>