<svg xmlns="http://www.w3.org/2000/svg" viewBox="0 0 96.07 47.67"><title>Asset 1</title><g id="Layer_2" data-name="Layer 2"><g id="Layer_1-2" data-name="Layer 1"><path d="M96,28.27a2,2,0,0,0-1.63-1.57c-.7-.11-10.65-1.76-22.18-3.11C67,11.57,59.6,0,48,0s-19,11.57-24.15,23.59C12.36,24.94,2.4,26.59,1.7,26.7A2,2,0,0,0,.08,28.28,2,2,0,0,0,1.2,30.7,31.66,31.66,0,0,1,15.83,46.41a2,2,0,0,0,3.77,0c.88-2.11,1.81-4.71,2.88-7.71,1.24-3.5,2.65-7.45,4.27-11.4A207.49,207.49,0,0,1,48,25.83,207.3,207.3,0,0,1,69.31,27.3c1.63,3.95,3,7.9,4.28,11.4,1.07,3,2,5.6,2.87,7.71a2,2,0,0,0,3.77,0A31.76,31.76,0,0,1,94.86,30.7,2,2,0,0,0,96,28.27Zm-38-6c-1.7-.12-3.38-.21-5-.28V5.15a17.2,17.2,0,0,1,5,3.4ZM38,8.55a17.33,17.33,0,0,1,5-3.4V22c-1.61.07-3.29.16-5,.28ZM7.61,29.83c2.28-.35,5.17-.77,8.42-1.21v9.75A35.87,35.87,0,0,0,7.61,29.83Zm11,7.5c-.21.57-.4,1.13-.6,1.67V28.36l4.1-.52C20.83,31.15,19.68,34.38,18.63,37.33ZM36,10.67V22.38c-2.46.2-5,.43-7.45.69A55,55,0,0,1,36,10.67Zm9,11.21V4.47a12.45,12.45,0,0,1,3-.38,12.33,12.33,0,0,1,3,.38V21.88c-1,0-2-.05-3-.05S46.06,21.85,45,21.88Zm15,.5V10.67a54.68,54.68,0,0,1,7.45,12.4C65,22.81,62.49,22.58,60,22.38Zm13.9,5.46,4.1.52V39l-.59-1.67C76.39,34.39,75.23,31.15,73.93,27.84ZM80,38.37V28.63c3.25.43,6.14.85,8.42,1.2A36.25,36.25,0,0,0,80,38.37Z"/></g></g></svg>