<svg xmlns="http://www.w3.org/2000/svg" viewBox="0 0 78.2 78.2"><title>Asset 1</title><g id="Layer_2" data-name="Layer 2"><g id="Layer_1-2" data-name="Layer 1"><path d="M51.05,51.05c4.47-4.47,6.48-10.9,5.9-18.53a48.67,48.67,0,0,1-5.85-1.2l-.32-.08A26.85,26.85,0,0,1,51,36.4l-6.19-6.19a21,21,0,0,0-4.15.09l9.8,9.8A13.47,13.47,0,0,1,40.08,50.46l-9.79-9.79a21.92,21.92,0,0,0-.08,4.16L36.38,51a31.76,31.76,0,0,1-10.07-1.22c-11-3-20.39-1.4-26.31,4.52l4.24,4.24c4.34-4.33,11.62-5.39,20.5-3C35.78,58.57,45.13,57,51.05,51.05ZM48.4,18.54a45.06,45.06,0,0,1,5.85,1.2l.32.08a26.62,26.62,0,0,1-.13-6.27l7.35,7.35a18.93,18.93,0,0,0,3.93-.31L55.15,10a13.82,13.82,0,0,1,3.39-5.77L54.3,0C49.82,4.47,47.82,10.9,48.4,18.54ZM23.63,58.38a26.87,26.87,0,0,1,.13,6.3L16.39,57.3a19.64,19.64,0,0,0-3.93.31L23,68.2A13.77,13.77,0,0,1,19.66,74L23.9,78.2c4.47-4.47,6.48-10.9,5.9-18.54A46.72,46.72,0,0,1,24,58.47ZM53.46,22.63c-11.05-3-20.39-1.4-26.31,4.52-4.47,4.47-6.48,10.9-5.9,18.54a45.06,45.06,0,0,1,5.85,1.2l.31.08c-.79-6,.23-10.95,3-14.44L43.53,45.67a11.8,11.8,0,0,0,1.15-1,10.83,10.83,0,0,0,1-1.16L32.51,30.41c4.41-3.49,11.22-4.21,19.37-2,11,3,20.4,1.41,26.32-4.52L74,19.66C69.62,24,62.34,25.05,53.46,22.63Z"/></g></g></svg>