<svg xmlns="http://www.w3.org/2000/svg" viewBox="0 0 89.14 74.11"><title>Asset 1</title><g id="Layer_2" data-name="Layer 2"><g id="Layer_1-2" data-name="Layer 1"><path d="M77.35,41.23h0a1.5,1.5,0,0,0-1.46,1.2,32.52,32.52,0,0,1-12.7,19.29,1.49,1.49,0,0,0-.49,1.87h0a1.5,1.5,0,0,0,2.24.56A35.54,35.54,0,0,0,78.82,43.07,1.51,1.51,0,0,0,77.35,41.23Z"/><path d="M61.49,7.1a1.5,1.5,0,0,0,0-2.6,35.32,35.32,0,0,0-34.16-.19,1.5,1.5,0,0,0,0,2.6h0a1.51,1.51,0,0,0,1.47,0A32.32,32.32,0,0,1,60,7.11a1.5,1.5,0,0,0,1.48,0Z"/><path d="M11.12,41.23h0a1.51,1.51,0,0,0-1.47,1.84A35.53,35.53,0,0,0,24,64.45a1.5,1.5,0,0,0,2.21-.54h0a1.5,1.5,0,0,0-.5-1.92A32.47,32.47,0,0,1,12.58,42.43,1.51,1.51,0,0,0,11.12,41.23Z"/><path d="M54.65,50.45A10.08,10.08,0,1,0,44.57,60.52,10.09,10.09,0,0,0,54.65,50.45Zm-17.15,0a7.08,7.08,0,1,1,7.07,7.07A7.08,7.08,0,0,1,37.5,50.45Z"/><path d="M56.6,72.87A1.42,1.42,0,0,0,58,74.11h.2a1.39,1.39,0,0,0,1.4-1.55,11.45,11.45,0,0,0-11.32-9.88H40.88a11.44,11.44,0,0,0-11.32,9.88A1.39,1.39,0,0,0,31,74.11h.2a1.43,1.43,0,0,0,1.39-1.24,8.43,8.43,0,0,1,8.33-7.19h7.39A8.44,8.44,0,0,1,56.6,72.87Z"/><path d="M25.1,14.19A10.08,10.08,0,1,0,15,24.26,10.08,10.08,0,0,0,25.1,14.19ZM8,14.19A7.08,7.08,0,1,1,15,21.26,7.08,7.08,0,0,1,8,14.19Z"/><path d="M0,36.3a1.39,1.39,0,0,0,1.4,1.55h.2A1.41,1.41,0,0,0,3,36.61a8.43,8.43,0,0,1,8.33-7.18h7.39a8.43,8.43,0,0,1,8.33,7.18,1.42,1.42,0,0,0,1.39,1.24h.2A1.39,1.39,0,0,0,30,36.3a11.44,11.44,0,0,0-11.32-9.87H11.33A11.44,11.44,0,0,0,0,36.3Z"/><path d="M84.19,14.19A10.08,10.08,0,1,0,74.12,24.26,10.08,10.08,0,0,0,84.19,14.19Zm-17.14,0a7.07,7.07,0,1,1,7.07,7.07A7.08,7.08,0,0,1,67.05,14.19Z"/><path d="M87.74,37.85h0a1.39,1.39,0,0,0,1.39-1.55,11.43,11.43,0,0,0-11.32-9.87H70.43A11.43,11.43,0,0,0,59.11,36.3a1.38,1.38,0,0,0,1.39,1.55h.2a1.41,1.41,0,0,0,1.39-1.24,8.43,8.43,0,0,1,8.34-7.18h7.38a8.43,8.43,0,0,1,8.34,7.18,1.41,1.41,0,0,0,1.39,1.24Z"/></g></g></svg>