<svg xmlns="http://www.w3.org/2000/svg" viewBox="0 0 98.1 98.1"><title>Asset 1</title><g id="Layer_2" data-name="Layer 2"><g id="Layer_1-2" data-name="Layer 1"><path d="M93.7,0H4.4A4.44,4.44,0,0,0,0,4.4V93.7a4.44,4.44,0,0,0,4.4,4.4H93.7a4.44,4.44,0,0,0,4.4-4.4V4.3A4.35,4.35,0,0,0,93.7,0Zm.9,93.6a.9.9,0,0,1-.9.9H4.4a.9.9,0,0,1-.9-.9V18.5H94.6Zm0-78.6H3.5V4.3a.9.9,0,0,1,.9-.9H93.7a.9.9,0,0,1,.9.9V15Z"/><circle cx="11" cy="9.1" r="2.8"/><circle cx="19.7" cy="9.1" r="2.8"/><circle cx="28.4" cy="9.1" r="2.8"/><path d="M37.7,73.5a2.35,2.35,0,0,0,.8.2,1.65,1.65,0,0,0,1.5-.9L59.8,35.6a1.77,1.77,0,0,0-3.1-1.7L37,71.2A1.62,1.62,0,0,0,37.7,73.5Z"/><path d="M15.3,52.6h0c0,.2,0,.3.1.4v.3h0c0,.1.1.1.1.2h0c0,.1.1.1.1.2h0l.1.1h0l.1.1h0c.1,0,.1.1.2.1l17.2,8.2a1.85,1.85,0,0,0,.7.2,1.9,1.9,0,0,0,1.6-1,1.77,1.77,0,0,0-.8-2.3l-14-6.7,14-6.7a1.72,1.72,0,0,0-1.5-3.1L16,50.8h0a.1.1,0,0,0-.1.1h-.1a.1.1,0,0,0-.1.1h-.1l-.1.1-.1.1-.1.1-.1.1-.1.1a.1.1,0,0,1-.1.1v.3h0v.3c0,.1-.1.3-.1.4h0c.4-.1.4-.1.4,0Z"/><path d="M60.9,61.5a1.78,1.78,0,0,0,1.6,1,1.85,1.85,0,0,0,.7-.2l17.2-8.2c.1,0,.1-.1.2-.1h0a.1.1,0,0,0,.1-.1h0l.1-.1h0c0-.1.1-.1.1-.2h0c0-.1.1-.1.1-.2h0v-.3c0-.1.1-.3.1-.4h0v-.2h0a.6.6,0,0,0-.1-.4v-.3h0v-.3a.1.1,0,0,0-.1-.1l-.1-.1-.1-.1-.1-.1-.1-.1a.1.1,0,0,1-.1-.1h-.1a.1.1,0,0,1-.1-.1h0a.1.1,0,0,1-.1-.1h0L63.2,42.8a1.72,1.72,0,1,0-1.5,3.1l14,6.7-14,6.7A1.65,1.65,0,0,0,60.9,61.5Z"/></g></g></svg>