<svg xmlns="http://www.w3.org/2000/svg" viewBox="0 0 170.14 182.9"><title>Asset 1</title><g id="Layer_2" data-name="Layer 2"><g id="Layer_1-2" data-name="Layer 1"><path d="M116,182.9a34.11,34.11,0,0,1-19.71-6.28l-.29-.21a298.68,298.68,0,0,0-47.58-33.6l-.36-.23a15.56,15.56,0,0,1,16.82-26.17l7.45,4.27L50,64.05a14.66,14.66,0,0,1,8.27-19c.4-.16.8-.3,1.21-.43a14.87,14.87,0,0,1,17.83,9l9.38,23.67a13.54,13.54,0,0,1,18.22-1,13.11,13.11,0,0,1,5.79-4.42c4-1.57,8.29-.62,11.77,1.67a12.28,12.28,0,0,1,21.79,2.06l24,60.52a26.76,26.76,0,0,1-15,34.73h0l-24.56,9.69A34.3,34.3,0,0,1,116,182.9Zm-15-12.7a26.13,26.13,0,0,0,24.58,2.86l24.61-9.65a18.76,18.76,0,0,0,10.57-24.33v0l-24-60.52a4.28,4.28,0,0,0-8,3l8.54,21.39a4,4,0,0,1-7.43,3L121.38,84.7l-.11-.27-.26-.67c-1.22-3.08-5-5.33-7.42-4.39a5.28,5.28,0,0,0-2.91,2.81,5.19,5.19,0,0,0-.2,3.66l8,20.2a4,4,0,1,1-7.43,3l-7.92-19.83c-.08-.2-.15-.4-.22-.6l-1.5-3.77a5.54,5.54,0,0,0-10.56,3.25l8,20.09a4,4,0,1,1-7.44,3L83.72,91.71c-.16-.41-.3-.83-.42-1.25L69.84,56.51a6.81,6.81,0,0,0-8.09-4.24,1.82,1.82,0,0,0-.57.19,6.67,6.67,0,0,0-3.77,8.63v0L84,128.41a4,4,0,0,1-5.71,4.94L60.9,123.41A7.55,7.55,0,0,0,52.55,136,306.93,306.93,0,0,1,101,170.2Z"/><circle cx="57.52" cy="162.27" r="7.56"/><path d="M102.85,182H12A12,12,0,0,1,0,170V12A12,12,0,0,1,12,0h91a12,12,0,0,1,12,12V75.6h-8V11.94a4,4,0,0,0-4-4H12a4,4,0,0,0-4,4V170a4,4,0,0,0,4,4h90.86a4.12,4.12,0,0,0,1.73-.38l3.32,7.28A12.11,12.11,0,0,1,102.85,182Z"/><rect x="3.93" y="147.54" width="61.15" height="4"/><rect x="3.93" y="19.23" width="107.17" height="4"/></g></g></svg>