<svg id="Layer_1" data-name="Layer 1" xmlns="http://www.w3.org/2000/svg" viewBox="0 0 114.41 87.4"><defs><style>.cls-1{fill:none;}</style></defs><title>manufactuing_triprint_close</title><path d="M32.6,24.4,18.9,16.6l13.7,2ZM24,18.3l7.7,4.4V19.4Z" transform="translate(-10.7 -16.6)"/><path d="M67.6,78,57.1,61.3H78ZM58.9,62.3l8.6,13.8,8.6-13.8Z" transform="translate(-10.7 -16.6)"/><path d="M67,78.2,52.6,76.1l4.1-14.2.6.7ZM53.9,75.3l11.2,1.6-8-12.8Z" transform="translate(-10.7 -16.6)"/><path d="M68.1,78.2l9.8-15.6.6-.6.2.8,3.8,13.4ZM78,64.1,70,76.9l11.2-1.6Z" transform="translate(-10.7 -16.6)"/><path d="M67.8,84.6V78.7l13.7-2Zm1-5v3.3l7.7-4.4Z" transform="translate(-10.7 -16.6)"/><path d="M67.3,84.6,53.6,76.8l13.7,2Zm-8.7-6.1,7.7,4.4V79.6Z" transform="translate(-10.7 -16.6)"/><path d="M77.8,60.8H57.3L67.6,50.5Zm-18.1-1H75.5l-7.9-7.9Z" transform="translate(-10.7 -16.6)"/><path d="M78.5,60.7l-9.6-9.6,13.5,6.7Zm-4.6-6,4.7,4.7L80.5,58Z" transform="translate(-10.7 -16.6)"/><polygon points="69 45.1 68.4 44.3 71.9 41.7 71.9 42.9 69 45.1"/><path d="M82.6,74.5,78.9,61.4v-.2l3.7-2.8Zm-2.7-13,1.7,5.8V60.2Z" transform="translate(-10.7 -16.6)"/><path d="M52.5,74.5V58.3l3.7,2.8v.4Zm1-14.2v7.1l1.7-5.8Z" transform="translate(-10.7 -16.6)"/><polygon points="35.8 31 40.8 34.6 34.5 32.7 34.8 31 33.8 31 33.4 33.4 46.5 37.3 37.5 31 35.8 31"/><path d="M103,86H32.8a.2.2,0,0,1,0-.4H103a.2.2,0,0,1,0,.4Z" transform="translate(-10.7 -16.6)"/><path d="M104.6,87.8H31.3a.47.47,0,0,1-.5-.5V85.5l2.7-6.3a.55.55,0,0,1,.5-.3H55.6a.47.47,0,0,1,.5.5.65.65,0,0,1-.6.6H34.3l-2.5,5.9v1h72.3v-1L101.6,80H83.1a.5.5,0,0,1,0-1h18.8a.55.55,0,0,1,.5.3l2.7,6.3v1.8C105.1,87.6,104.8,87.8,104.6,87.8Z" transform="translate(-10.7 -16.6)"/><path d="M124.1,94.9a31.49,31.49,0,0,1-2-6.7c0-.3-.3-.4-.5-.4a.47.47,0,0,0-.5.5c0,.1-.4,5.6-.4,9.1,0,3-4,3-4.2,3H19.3c-.2,0-4.2-.1-4.2-3,0-3.5-.4-9-.4-9.1a.47.47,0,0,0-.5-.5.46.46,0,0,0-.5.4,23.05,23.05,0,0,1-2,6.7,10.55,10.55,0,0,0-1,3.5c0,2.1,1,5.6,7.6,5.6h99.2c6.6,0,7.6-3.5,7.6-5.6A8.19,8.19,0,0,0,124.1,94.9Z" transform="translate(-10.7 -16.6)"/><polygon points="51.1 28 52.2 24.5 62.8 27.8 62.4 28 64.6 28 65.4 27.6 51.5 23.3 50.1 28 51.1 28"/><polygon points="56.7 31 48.9 35.1 50.2 31 49.1 31 47.2 37.2 58.9 31 56.7 31"/><polygon points="37.9 18.3 36.7 20.3 40.7 20.3 40.1 18.3 37.9 18.3"/><path class="cls-1" d="M119,47.5a2.84,2.84,0,0,0-1.3-.4H18.1a2.3,2.3,0,0,0-1.4.4l-.5.5a2.72,2.72,0,0,0-.6,1.7V97.3a2.48,2.48,0,0,0,2.5,2.5h99.6a2.48,2.48,0,0,0,2.5-2.5V49.6a2.45,2.45,0,0,0-.6-1.6Z" transform="translate(-10.7 -16.6)"/><polygon points="34.4 20.3 35.6 18.3 33.8 18.3 33.2 20.3 34.4 20.3"/><polygon points="26.9 18.7 26.3 18.3 25.1 18.3 26.1 19.3 26.9 18.7"/><path d="M121.2,46.7l-.1-.1-.1-.1c-.2-.2-.5-.4-.7-.6L109,36.4a4.71,4.71,0,0,0-3.3-1.4H52.9l.6,2h52.1a2.73,2.73,0,0,1,1.9.8l.1.1,8.6,7.2H19.6l8.7-7.3.1-.1a2.56,2.56,0,0,1,1.9-.8H35l-2-2H30.3A4.71,4.71,0,0,0,27,36.3L15.6,45.9a1.76,1.76,0,0,0-.5.4l-.2.2-.1.1a4.3,4.3,0,0,0-1.2,3.1V97.3a4.48,4.48,0,0,0,4.5,4.5h99.6a4.48,4.48,0,0,0,4.5-4.5V49.6A4,4,0,0,0,121.2,46.7Zm-.9,50.5a2.48,2.48,0,0,1-2.5,2.5H18.1a2.48,2.48,0,0,1-2.5-2.5V49.6a2.72,2.72,0,0,1,.6-1.7l.5-.4a2.3,2.3,0,0,1,1.4-.4h99.6a2,2,0,0,1,1.3.4l.7.6a2.45,2.45,0,0,1,.6,1.6Z" transform="translate(-10.7 -16.6)"/><polygon points="31.3 18.3 30.7 18.3 28 20.3 31.3 20.3 31.3 18.3"/><polygon points="41.4 28 33.6 24.7 39.5 14.7 43.6 28 44.7 28 40.1 13.3 39.7 12.4 32.1 25.2 38.8 28 41.4 28"/><path d="M42.5,40.2V24l3.7,2.8v.4Zm1-14.2v7l1.7-5.8Z" transform="translate(-10.7 -16.6)"/><path d="M36.6,37.9,27,28.3,40.5,35Zm-4.5-6,4.7,4.7,1.9-1.4Z" transform="translate(-10.7 -16.6)"/></svg>