<svg xmlns="http://www.w3.org/2000/svg" viewBox="0 0 56 54"><title>Asset 1</title><g id="Layer_2" data-name="Layer 2"><g id="Layer_1-2" data-name="Layer 1"><path d="M7,14a7,7,0,1,1,7-7A7,7,0,0,1,7,14Zm6.05-.36a9.37,9.37,0,0,0,1-1.13L24.77,23.18a.77.77,0,0,1,0,1.09.94.94,0,0,1-.12.09.77.77,0,0,1-1-.1ZM8,48a7,7,0,1,1,7-7h0A7,7,0,0,1,8,48Zm8-11.18a9.69,9.69,0,0,0-.87-1.35L20,32.17a8.64,8.64,0,0,0,.87,1.35Zm13.15-2.75.5.74a7,7,0,0,1-8-9.74l.62.61a2.77,2.77,0,0,0,3.91-3.91l-.4-.4a7,7,0,0,1,8.85,4.34A7.13,7.13,0,0,1,35,28a7,7,0,0,1-.87,3.39L33.85,31a2.83,2.83,0,0,0-4.74,3.1ZM40,40a7,7,0,1,1-7,7A7,7,0,0,1,40,40Zm-3.42-1.32a9.26,9.26,0,0,0-1.43.75L30.79,33A.83.83,0,0,1,31,31.83a.82.82,0,0,1,1.14.25Zm-.17-13.87a10.11,10.11,0,0,0-.48-1.06l4.38-1.46a7.44,7.44,0,0,0,.36,1.1ZM49,27a7,7,0,1,1,7-7A7,7,0,0,1,49,27Z"/></g></g></svg>