<svg xmlns="http://www.w3.org/2000/svg" viewBox="0 0 48 48"><title>Asset 1</title><g id="Layer_2" data-name="Layer 2"><g id="Layer_1-2" data-name="Layer 1"><path d="M47,48H1a1,1,0,0,1-.89-1.45l23-46a1,1,0,0,1,1.78,0l23,46A1,1,0,0,1,47,48ZM2.62,46H45.38L24,3.23Z"/><path d="M24,46a1,1,0,0,1-1-1V43a1,1,0,0,1,2,0v2A1,1,0,0,1,24,46Zm0-6a1,1,0,0,1-1-1V37a1,1,0,0,1,2,0v2A1,1,0,0,1,24,40Zm0-6a1,1,0,0,1-1-1V31a1,1,0,0,1,2,0v2A1,1,0,0,1,24,34Zm0-6a1,1,0,0,1-1-1V25a1,1,0,0,1,2,0v2A1,1,0,0,1,24,28Zm0-6a1,1,0,0,1-1-1V19a1,1,0,0,1,2,0v2A1,1,0,0,1,24,22Zm0-6a1,1,0,0,1-1-1V13a1,1,0,0,1,2,0v2A1,1,0,0,1,24,16Zm0-6a1,1,0,0,1-1-1V7a1,1,0,0,1,2,0V9A1,1,0,0,1,24,10Zm0-6a1,1,0,0,1-1-1V1a1,1,0,0,1,2,0V3A1,1,0,0,1,24,4Z"/></g></g></svg>