<svg xmlns="http://www.w3.org/2000/svg" viewBox="0 0 90 71.04"><title>Asset 1</title><g id="Layer_2" data-name="Layer 2"><g id="Layer_1-2" data-name="Layer 1"><path d="M57.15,32.67l-.45-.07-.7-.12-.81-.17L54.33,32l-.69-.44L53.23,31,53,30.32V27.2l.18-.71.41-.59.73-.41.86-.27.81-.17.67-.11.44-.09.26-.12.11-.21v-.35l0-.57-.13-.7-.18-.83-.22-.89-.25-.88-.26-.81-.24-.67L56,18.31l-.17-.3-.2-.13H55.3l-.43.15-.63.24-.78.26-.88.19h-.84l-.65-.31-.51-.52-.42-.64-.4-.65-.41-.68L49,15.27l-.2-.71.06-.72.43-.72.61-.67.61-.55.52-.42.34-.29.16-.23v-.23l-.18-.3L51,10l-.46-.55L50,8.81l-.64-.66-.66-.64-.63-.57-.55-.46-.44-.33L46.78,6h-.23l-.23.16L46,6.47,45.61,7l-.55.61-.67.61-.72.43L43,8.7l-.71-.2-.69-.34-.68-.41-.69-.39-.64-.42L39,6.43l-.31-.65V4.94l.19-.88.26-.78.24-.63.15-.43V1.94l-.13-.2-.3-.17-.51-.21L38,1.12,37.19.86,36.3.6,35.41.38,34.58.2l-.7-.13L33.34,0H33l-.21.11-.12.26-.08.44-.11.67-.17.81L32,3.15l-.41.73L31,4.29l-.71.18h-3.1l-.71-.18-.59-.41-.41-.73-.27-.86L25,1.48,24.89.81,24.81.37,24.69.11,24.48,0h-.35l-.54.07-.7.13-.83.18L21.17.6l-.88.25-.81.26-.67.24-.51.21-.3.17-.13.2v.28l.15.43.24.63.26.78.19.88v.84l-.31.65-.52.51-.64.42-.69.39-.68.41-.69.34-.71.2-.64-.09-.72-.43-.67-.57L11.89,7l-.42-.52-.29-.34L11,6h-.23l-.3.18L10,6.48l-.55.46-.63.57-.66.64-.64.66-.57.63L6.47,10l-.33.44-.18.3V11l.16.23.34.29L7,11.9l.61.55.61.67.43.72.06.72-.2.71L8.15,16l-.41.68-.39.69L6.93,18l-.51.52-.65.31H4.93L4,18.6l-.78-.26-.63-.24L2.16,18H1.88l-.2.13-.17.3-.21.51-.24.67-.26.81-.25.88-.22.89L.15,23l-.13.7,0,.51v.35l.11.21.26.12L.81,25l.67.11.81.17.86.27.73.41.41.59.18.71v3.16l-.18.71-.42.52L3.14,32l-.86.27-.81.17L.8,32.6l-.44.09-.26.12L0,33v.35l.07.54.13.7.18.83.22.89.25.88.26.81.24.67.21.51.17.3.2.13h.28l.43-.15.63-.24L4,38.93l.88-.19h.84l.65.31.51.52.42.64.39.69.41.68.34.69.2.71-.06.72-.43.72-.61.67L7,45.6,6.48,46l-.34.29L6,46.6v.23l.18.3.33.44.46.55.57.63.64.66.66.64.63.57.55.46.44.33.3.18H11l.23-.16.29-.34.42-.52.55-.61.67-.61.72-.43.72-.06.71.2.69.34.68.41.69.39.64.4.52.51.31.65v.84l-.19.88-.26.78-.24.63-.15.43v.28l.13.2.3.17.51.21.67.24.81.26.88.25.89.22.83.18.7.13.54.07h.35l.21-.11.12-.26.08-.44.11-.67.17-.81.27-.86.41-.73.59-.41.71-.18H30.4l.71.18.59.41.41.73.27.86.17.81.11.67.08.44.12.26.21.11h.35l.54-.07.7-.13.83-.18.89-.22.88-.25.81-.26.67-.24.51-.21.3-.17.13-.2v-.28l-.15-.43-.24-.63L39,53.48l-.3-.88v-.84l.31-.65.52-.51.64-.42.69-.39.68-.41.69-.34.71-.2.72.06.72.43.67.61.55.61.42.52.29.34.23.16h.23l.3-.18.44-.33.55-.46.63-.57.66-.64.64-.66.57-.63.46-.55.33-.44.18-.3V46.6l-.16-.23-.4-.32-.47-.45-.61-.55-.61-.67-.43-.72-.06-.72.2-.71.34-.69.41-.68.39-.69.42-.64.51-.52.65-.31h.84l.88.19.78.26.63.24.43.15h.28l.2-.13.17-.3.21-.51.24-.67.26-.81.25-.88.22-.89.18-.83.13-.7.07-.54v-.35l-.11-.21Zm-28.4,7.75A11.66,11.66,0,1,1,40.41,28.76h0A11.66,11.66,0,0,1,28.75,40.42Zm60.67-6.69-.57-.51-.62-.45-.54-.35-.32-.21-.17-.16-.08-.2v-6.2l.08-.2.17-.16.32-.21.54-.35.62-.45.57-.51.42-.55.16-.57v-.59l-.2-.61-.28-.62-.31-.61-.35-.53-.43-.4-.54-.23H87.2l-.75.13-.74.21-.61.2-.36.12h-.23l-.2-.06L84,19.53l-.41-.35-.51-.46-.56-.51-.61-.51-.63-.48-.62-.44-.56-.39-.44-.32-.24-.22-.1-.19v-.61l.06-.64V12.89l-.17-.67-.34-.48-.49-.33-.6-.23L77.12,11l-.66-.14-.64-.06-.58.09-.52.28-.44.53-.37.67-.3.71-.22.6-.13.36-.12.2-.17.12-.31.09-.53.1-.68.11-.75.13-.78.15-.77.2-.73.21-.66.19-.52.14-.32.05h-.21l-.19-.15-.28-.27-.46-.45-.57-.51-.62-.44L64,13.6h-.59l-.56.18-.55.33-.54.41-.52.43-.44.46-.3.51-.1.58.14.67.29.71.37.67.33.55.2.33.09.22v.21l-.12.3-.25.48-.34.6-.37.66-.36.71-.32.72-.29.7-.26.64-.21.5-.16.28-.16.14-.22.07h-.38l-.64.08-.75.13-.74.21-.61.31-.39.44-.21.55L55,28v1.36L55,30l.21.55.39.44.61.31.74.21.75.13.64.08h.38l.22.07.16.14.16.28.21.5.26.64.29.7.32.72.36.71.37.66.34.6.25.48.12.3v.21l-.09.22-.2.33-.33.55-.37.67-.29.71-.14.67.1.58.3.51.44.46.52.43.54.41.55.33.56.18H64l.63-.28.62-.44.57-.51.46-.45.28-.27.19-.13H67l.32.05.52.14.66.19.73.21.77.2.78.15.75.13.68.11.53.1.31.09.17.12.12.2.13.36.22.6.3.71.37.67.44.53.52.28.58.09.64-.06.66-.14.66-.16.6-.23.49-.33.34-.48.17-.67V43.06l-.06-.64v-.61l.1-.19.24-.22.44-.32.56-.39.62-.44.63-.48.61-.51.56-.51.51-.46L84,38l.26-.19.2-.06h.23l.36.12.61.2.74.21.75.13h.69l.54-.23.43-.4.35-.53.31-.61.28-.62.2-.61v-.59l-.16-.57ZM73.2,36.79a7.64,7.64,0,1,1,7.64-7.64h0A7.64,7.64,0,0,1,73.2,36.79ZM80,55l-.15-.79-.22-.84-.26-.81-.31-.75-.32-.6-.33-.41-.31-.24h-.32l-.33.1-.33.17-.33.18-.34.14-.37.06-.41-.08-.44-.29-.46-.43L74.29,50l-.5-.51L73.26,49l-.52-.45-.45-.44-.29-.4-.1-.4v-.38l.1-.31.16-.33.15-.34.09-.33v-.32L72.19,45l-.43-.3-.62-.29-.76-.27-.84-.23-.85-.18-.79-.1H66.7l-.33.18-.18.27-.07.34V45.5l-.13.36-.27.31-.47.23-.6.18-.66.17-.69.18-.68.22-.65.22-.6.18-.52.06-.4-.11-.3-.23L59.91,47l-.21-.31-.22-.3-.25-.24-.3-.13h-.37l-.48.22-.56.39-.61.53-.62.61-.58.65-.49.64-.36.58-.2.49v.37l.15.29.26.23.31.2.32.19.29.22.24.29.13.39v.52l-.14.61-.19.66-.19.69-.14.7-.13.67-.15.61-.21.48-.3.29-.35.15-.36.06h-.74l-.33.09-.26.19-.17.34v.52l.06.68.15.79.22.84.27.83.31.75.32.6.33.41.32.19H55l.33-.1.33-.17.33-.18.34-.14.37-.06.41.08.44.29.46.43.48.49.5.51.53.47L60,66l.45.44.32.42.1.4v.38l-.13.35-.16.33-.15.34-.09.33v.32l.21.31L61,70l.62.29.76.27.84.23.85.18.8.11h.68l.52-.07.33-.18.18-.27.07-.34v-1l.13-.36.2-.27.47-.23.6-.18.66-.17.69-.18.68-.22.65-.22.61-.18.52-.06.4.11.3.23.24.28.21.31.22.3.25.24.3.13h.37l.48-.22.56-.39.61-.53.62-.61.58-.65.49-.64.36-.58L78,64.6v-.4l-.15-.29-.26-.23-.31-.2L77,63.29l-.29-.22-.24-.29-.13-.39v-.52l.14-.61.22-.66.19-.69.14-.7.13-.67.15-.61.21-.48.3-.29.35-.15.36-.07h.74l.33-.09.26-.19.17-.34V55.8ZM66.31,64.6a7.24,7.24,0,1,1,7.24-7.24h0A7.24,7.24,0,0,1,66.31,64.6Z"/></g></g></svg>