<svg xmlns="http://www.w3.org/2000/svg" viewBox="0 0 84.3 90"><title>Asset 1</title><g id="Layer_2" data-name="Layer 2"><g id="Layer_1-2" data-name="Layer 1"><path d="M82.8,65.4h-3V6.2h3a1.37,1.37,0,0,0,1.4-1.4,1.37,1.37,0,0,0-1.4-1.4H43.5v-2a1.4,1.4,0,1,0-2.8,0V3.2H1.4A1.37,1.37,0,0,0,0,4.6,1.37,1.37,0,0,0,1.4,6h3V65.2h-3a1.4,1.4,0,1,0,0,2.8H30.3L11,87.5a1.34,1.34,0,0,0,0,2,1.43,1.43,0,0,0,1,.4,1.28,1.28,0,0,0,1-.4L34.3,68.2h6.3V84.4a1.4,1.4,0,1,0,2.8,0V68.3h6.3L71,89.6a1.43,1.43,0,0,0,1,.4,1.28,1.28,0,0,0,1-.4,1.34,1.34,0,0,0,0-2L54,68.3H82.9a1.37,1.37,0,0,0,1.4-1.4A1.47,1.47,0,0,0,82.8,65.4Zm-5.8,0H7.2V6.2H77Z"/><path d="M61.1,54.4h-7A1.37,1.37,0,0,1,52.7,53V21.2a1.37,1.37,0,0,1,1.4-1.4h7a1.37,1.37,0,0,1,1.4,1.4V53A1.37,1.37,0,0,1,61.1,54.4Zm-5.5-2.9h4.1V22.6H55.6Z"/><path d="M45.6,54.4h-7A1.37,1.37,0,0,1,37.2,53V29.2a1.37,1.37,0,0,1,1.4-1.4h7A1.37,1.37,0,0,1,47,29.2V53A1.37,1.37,0,0,1,45.6,54.4Zm-5.5-2.9h4V30.7h-4Z"/><path d="M30.1,54.4h-7A1.37,1.37,0,0,1,21.7,53V37.1a1.37,1.37,0,0,1,1.4-1.4h7a1.37,1.37,0,0,1,1.4,1.4V53A1.37,1.37,0,0,1,30.1,54.4Zm-5.6-2.9h4.1v-13H24.5Z"/></g></g></svg>