<svg xmlns="http://www.w3.org/2000/svg" viewBox="0 0 85.6 95.6"><title>Asset 1</title><g id="Layer_2" data-name="Layer 2"><g id="Layer_1-2" data-name="Layer 1"><rect y="89.9" width="84" height="5.7"/><polygon points="39.7 67.4 37.4 71.3 39.7 75.3 44.3 75.3 46.6 71.3 44.3 67.4 39.7 67.4"/><path d="M42,62.6a8.8,8.8,0,1,0,8.8,8.8A8.81,8.81,0,0,0,42,62.6Zm2.9,13.7H39.1l-2.9-5,2.9-5h5.8l2.9,5Z"/><path d="M16.4,22.8a7.7,7.7,0,1,0,7.7,7.7A7.7,7.7,0,0,0,16.4,22.8Zm3.2,12.3-5.6.5L10.8,31l2.4-5.1,5.6-.5L22,30Z"/><polygon points="18.3 26.5 13.9 26.9 12 30.9 14.6 34.5 19 34.1 20.8 30.1 18.3 26.5"/><path d="M23.8,35.1a8.79,8.79,0,0,1-7.3,4.1,13.55,13.55,0,0,1-2-.2L32.3,71.8v-.4a9.82,9.82,0,0,1,9.8-9.8,9,9,0,0,1,4,.9Z"/><path d="M48.6,11.7A6.73,6.73,0,0,1,44.8,6L17,21.8a8.71,8.71,0,0,1,8.1,8.6,11,11,0,0,1-.2,1.8Z"/><polygon points="49.5 3.5 48.6 6.3 50.6 8.5 53.5 7.9 54.4 5.1 52.4 2.8 49.5 3.5"/><path d="M51.5,0a5.7,5.7,0,0,0-5.7,5.7,5.7,5.7,0,0,0,11.4,0A5.76,5.76,0,0,0,51.5,0ZM54,8.5l-3.8.8L47.6,6.4l1.3-3.6L52.7,2l2.6,2.9Z"/><path d="M76.1,20.5a4,4,0,0,0-5.6.8,3.94,3.94,0,0,0,.3,5.6Z"/><polygon points="77.6 20.5 82.9 23.6 85.6 27.4 84.2 29.8 83.5 30.3 82.9 29.9 83 29 83.6 27.8 81.8 25.4 79.2 23.8 74.7 29.2 76.7 31.5 79.4 32.8 80.6 31.9 81.4 31.7 81.9 32.2 81.6 33 79.4 34.8 75.2 32.9 71.2 28.3 77.6 20.5"/><path d="M69.8,20.6a5.5,5.5,0,0,1,1.9-1.5L58.2,5.7a6.66,6.66,0,0,1-5,6.4L68.7,22.8A6.5,6.5,0,0,1,69.8,20.6Z"/><path d="M62.5,88.9A20.93,20.93,0,0,0,51.3,74.3a9.8,9.8,0,0,1-18.6,0A20.93,20.93,0,0,0,21.5,88.9Z"/></g></g></svg>